<svg xmlns="http://www.w3.org/2000/svg" xmlns:xlink="http://www.w3.org/1999/xlink" width="1328.051" height="750.174" viewBox="0 0 1328.051 750.174">
  <defs>
    <clipPath id="clip-path">
      <rect id="Rectángulo_406698" data-name="Rectángulo 406698" width="282.051" height="129" transform="translate(0)" fill="#5573c6" stroke="#707070" stroke-width="1"/>
    </clipPath>
    <clipPath id="clip-path-2">
      <rect id="Rectángulo_406699" data-name="Rectángulo 406699" width="282.051" height="129" transform="translate(0)" fill="#ffca00" stroke="#707070" stroke-width="1"/>
    </clipPath>
    <linearGradient id="linear-gradient" x1="0.5" x2="0.5" y2="1" gradientUnits="objectBoundingBox">
      <stop offset="0" stop-color="#f7f7f7"/>
      <stop offset="1" stop-color="#d8d8d8" stop-opacity="0"/>
    </linearGradient>
    <linearGradient id="linear-gradient-2" x1="0.5" x2="0.5" y2="1" gradientUnits="objectBoundingBox">
      <stop offset="0" stop-color="#fff"/>
      <stop offset="1" stop-color="#fff" stop-opacity="0"/>
    </linearGradient>
  </defs>
  <g id="Grupo_1116772" data-name="Grupo 1116772" transform="translate(-135.975 -980.792)">
    <g id="Grupo_1115079" data-name="Grupo 1115079" transform="translate(1463.975 1153.299) rotate(90)" opacity="0.25" clip-path="url(#clip-path)">
      <g id="Grupo_1115078" data-name="Grupo 1115078" transform="translate(6.559 -148.677)">
        <path id="Sustracción_39" data-name="Sustracción 39" d="M136.653,0a137.662,137.662,0,0,0-27.54,2.776A135.9,135.9,0,0,0,60.249,23.338a137.051,137.051,0,0,0-49.51,60.123,135.968,135.968,0,0,0-7.963,25.651,137.987,137.987,0,0,0,0,55.081,135.905,135.905,0,0,0,20.562,48.863,137.051,137.051,0,0,0,60.123,49.51,135.969,135.969,0,0,0,25.651,7.963,137.986,137.986,0,0,0,55.081,0,135.906,135.906,0,0,0,48.863-20.562,137.052,137.052,0,0,0,49.51-60.123,135.971,135.971,0,0,0,7.963-25.651,137.986,137.986,0,0,0,0-55.081,135.9,135.9,0,0,0-20.562-48.863,137.051,137.051,0,0,0-60.123-49.51,135.97,135.97,0,0,0-25.651-7.963A137.662,137.662,0,0,0,136.653,0Zm-.509,208.453A71.817,71.817,0,0,1,121.776,207a70.9,70.9,0,0,1-25.492-10.727,71.5,71.5,0,0,1-25.829-31.366A70.93,70.93,0,0,1,66.3,151.529a71.987,71.987,0,0,1,0-28.735A70.9,70.9,0,0,1,77.028,97.3a71.5,71.5,0,0,1,31.366-25.829,70.931,70.931,0,0,1,13.382-4.154,71.987,71.987,0,0,1,28.735,0A70.9,70.9,0,0,1,176,78.046a71.5,71.5,0,0,1,25.829,31.366,70.929,70.929,0,0,1,4.154,13.382,71.986,71.986,0,0,1,0,28.735,70.9,70.9,0,0,1-10.727,25.492,71.5,71.5,0,0,1-31.366,25.829A70.928,70.928,0,0,1,150.511,207,71.816,71.816,0,0,1,136.144,208.453Z" fill="#7f7aff"/>
      </g>
    </g>
    <g id="Grupo_1115081" data-name="Grupo 1115081" transform="translate(135.975 1670.965) rotate(-90)" opacity="0.25" clip-path="url(#clip-path-2)">
      <g id="Grupo_1115080" data-name="Grupo 1115080" transform="translate(6.559 -148.677)">
        <path id="Sustracción_40" data-name="Sustracción 40" d="M136.653,0a137.662,137.662,0,0,0-27.54,2.776A135.9,135.9,0,0,0,60.249,23.338a137.051,137.051,0,0,0-49.51,60.123,135.968,135.968,0,0,0-7.963,25.651,137.987,137.987,0,0,0,0,55.081,135.905,135.905,0,0,0,20.562,48.863,137.051,137.051,0,0,0,60.123,49.51,135.969,135.969,0,0,0,25.651,7.963,137.986,137.986,0,0,0,55.081,0,135.906,135.906,0,0,0,48.863-20.562,137.052,137.052,0,0,0,49.51-60.123,135.971,135.971,0,0,0,7.963-25.651,137.986,137.986,0,0,0,0-55.081,135.9,135.9,0,0,0-20.562-48.863,137.051,137.051,0,0,0-60.123-49.51,135.97,135.97,0,0,0-25.651-7.963A137.662,137.662,0,0,0,136.653,0Zm-.509,208.453A71.817,71.817,0,0,1,121.776,207a70.9,70.9,0,0,1-25.492-10.727,71.5,71.5,0,0,1-25.829-31.366A70.93,70.93,0,0,1,66.3,151.529a71.987,71.987,0,0,1,0-28.735A70.9,70.9,0,0,1,77.028,97.3a71.5,71.5,0,0,1,31.366-25.829,70.931,70.931,0,0,1,13.382-4.154,71.987,71.987,0,0,1,28.735,0A70.9,70.9,0,0,1,176,78.046a71.5,71.5,0,0,1,25.829,31.366,70.929,70.929,0,0,1,4.154,13.382,71.986,71.986,0,0,1,0,28.735,70.9,70.9,0,0,1-10.727,25.492,71.5,71.5,0,0,1-31.366,25.829A70.928,70.928,0,0,1,150.511,207,71.816,71.816,0,0,1,136.144,208.453Z" fill="#f0dcc0"/>
      </g>
    </g>
    <g id="Grupo_1115082" data-name="Grupo 1115082" transform="translate(0.025 -519.922)">
      <rect id="Rectángulo_33858" data-name="Rectángulo 33858" width="1328" height="750.174" transform="translate(136 1500.714)" fill="url(#linear-gradient)"/>
      <rect id="Rectángulo_326955" data-name="Rectángulo 326955" width="1328" height="83" transform="translate(136 1500.714)" fill="url(#linear-gradient-2)"/>
    </g>
  </g>
</svg>
