<svg xmlns="http://www.w3.org/2000/svg" xmlns:xlink="http://www.w3.org/1999/xlink" width="1329.949" height="968" viewBox="0 0 1329.949 968">
  <defs>
    <clipPath id="clip-path">
      <rect id="Rect치ngulo_406412" data-name="Rect치ngulo 406412" width="1329.949" height="968" transform="translate(-6459 -8490.849)" fill="#fff" stroke="#707070" stroke-width="1"/>
    </clipPath>
    <clipPath id="clip-path-2">
      <rect id="Rect치ngulo_406383" data-name="Rect치ngulo 406383" width="502.737" height="502" fill="#ceff27"/>
    </clipPath>
  </defs>
  <g id="Enmascarar_grupo_1101881" data-name="Enmascarar grupo 1101881" transform="translate(-5129.051 -7522.849) rotate(180)" opacity="0.19" clip-path="url(#clip-path)">
    <path id="Trazado_911554" data-name="Trazado 911554" d="M312.077,0C139.722,0,0,167.029,0,373.071S139.722,746.141,312.077,746.141,624.154,579.112,624.154,373.071,484.432,0,312.077,0Z" transform="translate(-6645.461 -8367.861)" fill="#7f7aff" opacity="0.545"/>
    <ellipse id="Elipse_12780" data-name="Elipse 12780" cx="215.625" cy="373.071" rx="215.625" ry="373.071" transform="translate(-5390.383 -8139.705)" fill="#ffce79" opacity="0.44"/>
    <g id="Grupo_1114303" data-name="Grupo 1114303" transform="translate(-6438.971 -7110.849)" opacity="0.15" style="mix-blend-mode: multiply;isolation: isolate">
      <g id="Grupo_1114302" data-name="Grupo 1114302" transform="translate(0)" clip-path="url(#clip-path-2)" style="mix-blend-mode: multiply;isolation: isolate">
        <path id="Trazado_911555" data-name="Trazado 911555" d="M0,251c0-33.923,29.287-61.422,65.415-61.422,26.576,0,115.261,33.236,160.3,50.811C181.422,221.017,95.176,181.9,76.383,163.136,50.837,137.627,49.6,97.5,73.625,73.515s64.205-22.753,89.751,2.756c18.792,18.765,57.965,104.882,77.366,149.109-17.6-44.972-50.885-133.525-50.885-160.062C189.856,29.244,217.4,0,251.368,0s61.513,29.244,61.513,65.318c0,26.538-33.286,115.093-50.887,160.065,19.4-44.228,58.574-130.347,77.366-149.112,25.546-25.509,65.73-26.743,89.752-2.756s22.787,64.111-2.76,89.62c-18.792,18.765-105.038,57.881-149.329,77.253,45.037-17.575,133.722-50.811,160.3-50.811,36.127,0,65.414,27.5,65.414,61.422s-29.287,61.422-65.414,61.422c-26.577,0-115.262-33.236-160.3-50.811,44.292,19.372,130.537,58.488,149.329,77.253,25.546,25.509,26.782,65.632,2.76,89.62s-64.205,22.753-89.752-2.756C320.569,406.964,281.4,320.845,262,276.617c17.6,44.972,50.887,133.527,50.887,160.064,0,36.076-27.541,65.32-61.513,65.32s-61.512-29.244-61.512-65.32c0-26.537,33.284-115.089,50.885-160.061-19.4,44.228-58.574,130.345-77.366,149.109-25.545,25.509-65.728,26.743-89.751,2.756s-22.788-64.111,2.759-89.62c18.792-18.765,105.039-57.881,149.331-77.253-45.038,17.575-133.723,50.811-160.3,50.811C29.287,312.422,0,284.923,0,251" transform="translate(0 0)" fill="#ceff27"/>
      </g>
    </g>
  </g>
</svg>
