<svg xmlns="http://www.w3.org/2000/svg" xmlns:xlink="http://www.w3.org/1999/xlink" width="1240" height="449.151" viewBox="0 0 1240 449.151">
  <defs>
    <clipPath id="clip-path">
      <rect id="Rectángulo_406542" data-name="Rectángulo 406542" width="1240" height="449.151" rx="17" transform="translate(0 0)" fill="#fff"/>
    </clipPath>
    <clipPath id="clip-path-2">
      <path id="Trazado_911647" data-name="Trazado 911647" d="M18.563,0H1271.092c10.252,0,18.563,15.689,18.563,35.042V900.026c0,19.353-8.311,35.042-18.563,35.042H18.563C8.311,935.068,0,919.379,0,900.026V35.042C0,15.689,8.311,0,18.563,0Z" fill="#283f65"/>
    </clipPath>
  </defs>
  <g id="Enmascarar_grupo_1101891" data-name="Enmascarar grupo 1101891" clip-path="url(#clip-path)">
    <g id="Grupo_1114713" data-name="Grupo 1114713" transform="translate(-23.827 -264.027)" clip-path="url(#clip-path-2)">
      <path id="Trazado_911645" data-name="Trazado 911645" d="M18.563,0H1271.092c10.252,0,18.563,15.149,18.563,33.837V869.075c0,18.688-8.311,33.837-18.563,33.837H18.563C8.311,902.912,0,887.762,0,869.075V33.837C0,15.149,8.311,0,18.563,0Z" fill="#eaecf0"/>
      <path id="Trazado_911646" data-name="Trazado 911646" d="M325.674,0C505.539,0,651.348,212.184,651.348,473.926S505.539,947.853,325.674,947.853,0,735.669,0,473.926,145.809,0,325.674,0Z" transform="translate(910.307 488.907)" fill="#ffce79" opacity="0.332"/>
      <ellipse id="Elipse_12796" data-name="Elipse 12796" cx="325.206" cy="473.926" rx="325.206" ry="473.926" transform="translate(-398.601 -272.449)" fill="#4a732c" opacity="0.232"/>
    </g>
  </g>
</svg>
