<svg xmlns="http://www.w3.org/2000/svg" xmlns:xlink="http://www.w3.org/1999/xlink" width="1328" height="968" viewBox="0 0 1328 968">
  <defs>
    <clipPath id="clip-path">
      <rect id="Rect치ngulo_406373" data-name="Rect치ngulo 406373" width="1328" height="968" transform="translate(-6459 -8490.849)" fill="#fff" stroke="#707070" stroke-width="1"/>
    </clipPath>
    <clipPath id="clip-path-2">
      <rect id="Rect치ngulo_406344" data-name="Rect치ngulo 406344" width="502" height="502" transform="translate(0 0)" fill="#ceff27"/>
    </clipPath>
  </defs>
  <g id="Enmascarar_grupo_1101879" data-name="Enmascarar grupo 1101879" transform="translate(-5131 -7522.849) rotate(180)" opacity="0.19" clip-path="url(#clip-path)">
    <path id="Trazado_911544" data-name="Trazado 911544" d="M311.619,0c172.1,0,311.619,167.029,311.619,373.071S483.722,746.141,311.619,746.141,0,579.112,0,373.071,139.517,0,311.619,0Z" transform="translate(-5574.051 -8331.861)" fill="#7f7aff" opacity="0.545"/>
    <ellipse id="Elipse_12775" data-name="Elipse 12775" cx="215.309" cy="373.071" rx="215.309" ry="373.071" transform="translate(-6635.568 -8278.705)" fill="#ffce79" opacity="0.44"/>
    <g id="Grupo_1114227" data-name="Grupo 1114227" transform="translate(-5575 -6912.849)" opacity="0.15" style="mix-blend-mode: multiply;isolation: isolate">
      <g id="Grupo_1114226" data-name="Grupo 1114226" transform="translate(-78 -198)" clip-path="url(#clip-path-2)" style="mix-blend-mode: multiply;isolation: isolate">
        <path id="Trazado_911545" data-name="Trazado 911545" d="M502,251c0-33.923-29.244-61.422-65.32-61.422-26.537,0-115.092,33.236-160.064,50.811,44.227-19.372,130.347-58.488,149.112-77.253,25.509-25.509,26.741-65.633,2.755-89.62s-64.111-22.753-89.619,2.756c-18.765,18.765-57.88,104.882-77.253,149.109,17.576-44.972,50.811-133.525,50.811-160.062C312.422,29.244,284.922,0,251,0s-61.423,29.244-61.423,65.318c0,26.538,33.237,115.093,50.812,160.065C221.017,181.155,181.9,95.036,163.136,76.271,137.627,50.762,97.5,49.529,73.515,73.515s-22.753,64.111,2.756,89.62c18.765,18.765,104.884,57.881,149.111,77.253-44.971-17.575-133.526-50.811-160.064-50.811C29.244,189.578,0,217.077,0,251s29.244,61.422,65.318,61.422c26.538,0,115.093-33.236,160.064-50.811C181.155,280.983,95.036,320.1,76.271,338.864c-25.509,25.509-26.743,65.632-2.756,89.62s64.111,22.753,89.62-2.756c18.765-18.765,57.881-104.884,77.253-149.112-17.575,44.972-50.812,133.527-50.812,160.064,0,36.076,27.5,65.32,61.423,65.32s61.422-29.244,61.422-65.32c0-26.537-33.235-115.089-50.811-160.061,19.373,44.228,58.488,130.345,77.253,149.109,25.508,25.509,65.632,26.743,89.619,2.756s22.754-64.111-2.755-89.62c-18.765-18.765-104.885-57.881-149.112-77.253,44.972,17.575,133.527,50.811,160.064,50.811,36.076,0,65.32-27.5,65.32-61.422" fill="#ceff27"/>
      </g>
    </g>
  </g>
</svg>
