<svg xmlns="http://www.w3.org/2000/svg" xmlns:xlink="http://www.w3.org/1999/xlink" width="128.441" height="84.194" viewBox="0 0 128.441 84.194"><defs><clipPath id="a"><rect width="121.399" height="72.12" fill="none"/></clipPath><clipPath id="b"><rect width="101.047" height="74.968" fill="none"/></clipPath><clipPath id="c"><path d="M.5,37.6A37.1,37.1,0,1,0,37.6.5,37.1,37.1,0,0,0,.5,37.6" transform="translate(-0.5 -0.5)" fill="none"/></clipPath><clipPath id="d"><rect width="101.047" height="74.967" fill="none"/></clipPath><linearGradient id="e" x1="-0.005" y1="1.005" x2="0.005" y2="1.005" gradientUnits="objectBoundingBox"><stop offset="0" stop-color="#ffa975"/><stop offset="1" stop-color="#d43420"/></linearGradient><clipPath id="f"><path d="M13.266,40.549A27.284,27.284,0,1,0,40.549,13.265,27.284,27.284,0,0,0,13.266,40.549" transform="translate(-13.266 -13.265)" fill="none"/></clipPath><radialGradient id="g" cx="0.209" cy="0.256" r="0.5" gradientTransform="matrix(1, 0, 0, -1, 0, 2.374)" gradientUnits="objectBoundingBox"><stop offset="0" stop-color="#fff"/><stop offset="1" stop-color="#d4d4d4"/></radialGradient><clipPath id="h"><path d="M26.032,43.5A17.468,17.468,0,1,0,43.5,26.031,17.468,17.468,0,0,0,26.032,43.5" transform="translate(-26.032 -26.031)" fill="none"/></clipPath><clipPath id="i"><path d="M38.8,46.45A7.652,7.652,0,1,0,46.45,38.8,7.653,7.653,0,0,0,38.8,46.45" transform="translate(-38.798 -38.798)" fill="none"/></clipPath><radialGradient id="j" cx="0.317" cy="0.334" r="0.5" gradientTransform="matrix(1, 0, 0, -1, 0, 5.898)" xlink:href="#g"/><clipPath id="l"><path d="M99.629,11.38,98.34,16.559l5.134,1.462,12.761-6.657-5.508-1.959.947-6.289Z" transform="translate(-98.34 -3.116)" fill="#12263f"/></clipPath></defs><g transform="translate(-1187.112 -401.297)"><g transform="translate(1187.112 413.371)" opacity="0.51"><g transform="translate(0 0)" clip-path="url(#a)"><path d="M9.68,77.4H1.728A1.729,1.729,0,0,1,0,75.673V24.581a1.728,1.728,0,0,1,1.728-1.728H9.68a1.728,1.728,0,0,1,1.728,1.728V75.673A1.729,1.729,0,0,1,9.68,77.4" transform="translate(0 -5.281)" fill="#e2e2e2"/><path d="M38.29,79.724H30.338A1.729,1.729,0,0,1,28.61,78V34.632A1.729,1.729,0,0,1,30.338,32.9H38.29a1.729,1.729,0,0,1,1.728,1.728V78a1.728,1.728,0,0,1-1.728,1.728" transform="translate(-6.612 -7.604)" fill="#e2e2e2"/><path d="M66.9,75.132H58.948A1.729,1.729,0,0,1,57.22,73.4V14.759a1.728,1.728,0,0,1,1.728-1.728H66.9a1.728,1.728,0,0,1,1.728,1.728V73.4A1.728,1.728,0,0,1,66.9,75.132" transform="translate(-13.224 -3.011)" fill="#e2e2e2"/><path d="M95.51,72.12H87.558a1.728,1.728,0,0,1-1.728-1.728V1.728A1.729,1.729,0,0,1,87.558,0H95.51a1.729,1.729,0,0,1,1.728,1.728V70.392A1.728,1.728,0,0,1,95.51,72.12" transform="translate(-19.836 0)" fill="#e2e2e2"/><path d="M124.12,81.426h-7.952A1.729,1.729,0,0,1,114.44,79.7v-37.7a1.729,1.729,0,0,1,1.728-1.728h7.952a1.728,1.728,0,0,1,1.728,1.728V79.7a1.728,1.728,0,0,1-1.728,1.728" transform="translate(-26.448 -9.306)" fill="#e2e2e2"/><path d="M152.73,77.4h-7.952a1.729,1.729,0,0,1-1.728-1.728V24.581a1.728,1.728,0,0,1,1.728-1.728h7.952a1.728,1.728,0,0,1,1.728,1.728V75.673A1.729,1.729,0,0,1,152.73,77.4" transform="translate(-33.06 -5.281)" fill="#e2e2e2"/></g></g><g transform="translate(1214.507 401.297)"><g clip-path="url(#b)"><g transform="translate(0.384 0.384)"><g clip-path="url(#c)"><rect width="103.27" height="103.27" transform="matrix(0.571, -0.821, 0.821, 0.571, -34.767, 50.044)" fill="#efc556"/></g></g><g transform="translate(0 0)"><g clip-path="url(#d)"><path d="M.5,37.6h0A37.1,37.1,0,1,0,37.6.5,37.1,37.1,0,0,0,.5,37.6h0A37.1,37.1,0,1,1,37.6,74.7,37.1,37.1,0,0,1,.5,37.6Z" transform="translate(-0.116 -0.116)" fill="url(#e)"/></g></g><g transform="translate(10.2 10.199)"><g clip-path="url(#f)"><rect width="54.568" height="54.568" transform="translate(0 0)" fill="url(#g)"/></g></g><g transform="translate(20.016 20.015)"><g clip-path="url(#h)"><rect width="47.657" height="47.657" transform="translate(-15.036 26.36) rotate(-60.299)" fill="#5c8e2e"/></g></g><g transform="translate(29.832 29.832)"><g clip-path="url(#i)"><rect width="15.304" height="15.305" transform="translate(0 0)" fill="url(#j)"/></g></g><g transform="translate(0 0)"><g clip-path="url(#d)"><path d="M48.443,40.974,92.2,15.831a.384.384,0,1,1,.383.667L48.826,41.641a.384.384,0,0,1-.383-.667" transform="translate(-11.151 -3.647)" fill="#12263f"/></g></g><g transform="translate(75.613 2.396)"><g clip-path="url(#l)"><rect width="22.955" height="21.865" transform="translate(-6.462 3.741) rotate(-30.065)" fill="#12263f"/></g></g></g></g></g></svg>