<svg xmlns="http://www.w3.org/2000/svg" xmlns:xlink="http://www.w3.org/1999/xlink" width="607.172" height="754.141" viewBox="0 0 607.172 754.141"><defs><clipPath id="a"><rect width="265.066" height="15.547" fill="none"/></clipPath><clipPath id="c"><rect width="25.073" height="40.095" fill="none"/></clipPath><clipPath id="f"><rect width="265.066" height="15.548" fill="none"/></clipPath><clipPath id="p"><rect width="55.55" height="2.306" fill="none"/></clipPath><clipPath id="y"><rect width="37.093" height="48.193" fill="#c1c1c1"/></clipPath><clipPath id="z"><rect width="34.427" height="35.629" fill="#5d9037"/></clipPath><clipPath id="ae"><rect width="37.093" height="48.193" fill="#d2d2d2"/></clipPath><clipPath id="af"><rect width="34.427" height="35.629" fill="#12263f"/></clipPath><clipPath id="ak"><rect width="63.444" height="1.992" fill="none"/></clipPath><clipPath id="ao"><rect width="63.444" height="1.991" fill="none"/></clipPath><clipPath id="aw"><rect width="23.735" height="2.34" fill="none"/></clipPath><clipPath id="ay"><rect width="23.734" height="2.34" fill="none"/></clipPath><clipPath id="az"><rect width="27.557" height="1.992" fill="none"/></clipPath><clipPath id="bc"><rect width="57.001" height="51.747" fill="#e8e8e8"/></clipPath><clipPath id="bg"><rect width="47.117" height="1.992" fill="none"/></clipPath><clipPath id="bh"><rect width="27.557" height="1.99" fill="none"/></clipPath><clipPath id="bn"><rect width="47.117" height="1.99" fill="none"/></clipPath><clipPath id="bp"><rect width="112.656" height="2.168" fill="none"/></clipPath></defs><g transform="translate(-8868 9488.999)"><g transform="translate(9210.106 -9347.984)" opacity="0.15"><g clip-path="url(#a)"><rect width="265.066" height="15.547" transform="translate(0 0)"/></g></g><g transform="translate(9210.106 -9108.768)" opacity="0.15"><g clip-path="url(#a)"><rect width="265.066" height="15.547" transform="translate(0 0)"/></g></g><path d="M202.643,179.117a18.34,18.34,0,0,1-8,15.159h-20.73a18.336,18.336,0,0,1-8-15.159c0-8.419,5-12.245,9.232-18.694,5.041-7.688,7.26-19.658,7.53-28.984h3.2c.272,9.43,2.2,21.508,7.411,29.22,4.232,6.264,9.35,9.753,9.35,18.457" transform="translate(9110.112 -9085.613)" fill="#7f7aff" fill-rule="evenodd"/><g transform="translate(9276.027 -8931.432)" opacity="0.15"><g clip-path="url(#c)"><path d="M190.988,166.58a18.34,18.34,0,0,1-8,15.159h-9.076a18.336,18.336,0,0,1-8-15.159c0-8.419,5-12.245,9.232-18.694a35.01,35.01,0,0,0,3.178-6.242,32.641,32.641,0,0,0,3.314,6.478c4.232,6.264,9.35,9.753,9.35,18.457" transform="translate(-165.915 -141.645)" fill-rule="evenodd"/></g></g><path d="M196.2,179.117a18.34,18.34,0,0,1-8,15.159H167.466a18.34,18.34,0,0,1-8-15.159c0-8.419,5-12.245,9.232-18.694,5.04-7.688,7.26-19.658,7.53-28.984h3.2c.272,9.43,2.2,21.508,7.409,29.22,4.234,6.264,9.352,9.753,9.352,18.457" transform="translate(9102.195 -9085.613)" fill="#7f7aff" fill-rule="evenodd"/><g transform="translate(9261.664 -8931.432)" opacity="0.15"><g clip-path="url(#c)"><path d="M184.542,166.58a18.34,18.34,0,0,1-8,15.159h-9.076a18.336,18.336,0,0,1-8-15.159c0-8.419,5-12.245,9.232-18.694a35.009,35.009,0,0,0,3.178-6.242,32.644,32.644,0,0,0,3.314,6.478c4.232,6.264,9.35,9.753,9.35,18.457" transform="translate(-159.469 -141.645)" fill-rule="evenodd"/></g></g><path d="M189.751,179.117a18.34,18.34,0,0,1-8,15.159h-20.73a18.336,18.336,0,0,1-8-15.159c0-8.419,5-12.245,9.232-18.694,5.041-7.688,7.26-19.658,7.53-28.984h3.2c.272,9.43,2.2,21.508,7.411,29.22,4.232,6.264,9.35,9.753,9.35,18.457" transform="translate(9094.277 -9085.613)" fill="#7f7aff" fill-rule="evenodd"/><g transform="translate(9247.3 -8931.432)" opacity="0.15"><g clip-path="url(#c)"><path d="M178.1,166.58a18.34,18.34,0,0,1-8,15.159h-9.076a18.336,18.336,0,0,1-8-15.159c0-8.419,5-12.245,9.232-18.694a35.009,35.009,0,0,0,3.178-6.242,32.755,32.755,0,0,0,3.311,6.478c4.234,6.264,9.352,9.753,9.352,18.457" transform="translate(-153.023 -141.645)" fill-rule="evenodd"/></g></g><path d="M183.486,179.117a18.339,18.339,0,0,1-8,15.159h-20.73a18.336,18.336,0,0,1-8-15.159c0-8.419,5-12.245,9.232-18.694,5.041-7.688,7.262-19.658,7.53-28.984h3.2c.272,9.43,2.2,21.508,7.411,29.22,4.232,6.264,9.35,9.753,9.35,18.457" transform="translate(9086.583 -9085.613)" fill="#7f7aff" fill-rule="evenodd"/><rect width="265.066" height="21.203" transform="translate(8906.313 -9130.555)" fill="#0f1f33"/><rect width="265.066" height="21.203" transform="translate(8906.313 -8891.338)" fill="#0f1f33"/><g transform="translate(8906.313 -9109.352)" opacity="0.15"><g clip-path="url(#f)"><rect width="265.066" height="15.547" transform="translate(0 0)"/></g></g><g transform="translate(8906.313 -8870.135)" opacity="0.15"><g clip-path="url(#f)"><rect width="265.066" height="15.547" transform="translate(0 0)"/></g></g><rect width="265.066" height="21.203" transform="translate(9210.106 -9130.555)" fill="#0f1f33"/><rect width="265.066" height="21.203" transform="translate(9210.106 -8891.338)" fill="#0f1f33"/><g transform="translate(9210.106 -8870.135)" opacity="0.15"><g clip-path="url(#f)"><rect width="265.066" height="15.547" transform="translate(0 0)"/></g></g><rect width="265.066" height="5.435" transform="translate(8906.313 -9130.555)" fill="#dee4f0"/><rect width="265.066" height="5.435" transform="translate(8906.313 -8891.338)" fill="#dee4f0"/><rect width="265.066" height="21.203" transform="translate(8906.313 -9488.999)" fill="#0f1f33"/><g transform="translate(8906.313 -9485.999)" opacity="0.15"><g clip-path="url(#a)"><rect width="265.066" height="15.547"/></g></g><rect width="265.066" height="5.435" transform="translate(8906.313 -9480.999)" fill="#dee4f0"/><rect width="265.066" height="5.435" transform="translate(9210.106 -9130.555)" fill="#dee4f0"/><rect width="265.066" height="5.435" transform="translate(9210.106 -8891.338)" fill="#dee4f0"/><rect width="265.066" height="21.203" transform="translate(8906.313 -9369.188)" fill="#0f1f33"/><g transform="translate(8906.313 -9347.984)" opacity="0.15"><g clip-path="url(#a)"><rect width="265.066" height="15.547" transform="translate(0 0)"/></g></g><rect width="265.066" height="21.203" transform="translate(9210.106 -9369.188)" fill="#0f1f33"/><rect width="265.066" height="21.203" transform="translate(8906.313 -9249.871)" fill="#0f1f33"/><rect width="265.066" height="21.203" transform="translate(8906.313 -9010.654)" fill="#0f1f33"/><g transform="translate(8906.313 -9228.669)" opacity="0.15"><g clip-path="url(#f)"><rect width="265.066" height="15.547" transform="translate(0 0)"/></g></g><g transform="translate(8906.313 -8989.452)" opacity="0.15"><g clip-path="url(#f)"><rect width="265.066" height="15.547" transform="translate(0 0)"/></g></g><rect width="265.066" height="21.203" transform="translate(9210.106 -9249.871)" fill="#0f1f33"/><rect width="265.066" height="21.203" transform="translate(9210.106 -9010.654)" fill="#0f1f33"/><g transform="translate(9210.106 -9228.669)" opacity="0.15"><g clip-path="url(#f)"><rect width="265.066" height="15.547" transform="translate(0 0)"/></g></g><g transform="translate(9210.106 -8989.452)" opacity="0.15"><g clip-path="url(#f)"><rect width="265.066" height="15.547" transform="translate(0 0)"/></g></g><rect width="265.066" height="5.435" transform="translate(8906.313 -9369.188)" fill="#dee4f0"/><rect width="265.066" height="5.435" transform="translate(9210.106 -9369.188)" fill="#dee4f0"/><g transform="translate(9210.106 -9486)" opacity="0.15"><g clip-path="url(#a)"><rect width="265.066" height="15.547" transform="translate(0 0)"/></g></g><rect width="265.066" height="21.203" transform="translate(9210.106 -9488.999)" fill="#0f1f33"/><rect width="265.066" height="5.435" transform="translate(9210.106 -9481)" fill="#dee4f0"/><rect width="265.066" height="5.435" transform="translate(8906.313 -9249.871)" fill="#dee4f0"/><rect width="265.066" height="5.435" transform="translate(8906.313 -9010.654)" fill="#dee4f0"/><rect width="265.066" height="5.435" transform="translate(9210.106 -9249.871)" fill="#dee4f0"/><rect width="265.066" height="5.435" transform="translate(9210.106 -9010.654)" fill="#dee4f0"/><rect width="55.55" height="65.377" transform="translate(8966.194 -8956.715)" fill="#ffce79"/><path d="M26.873,130.3v63.276c7.643-9.243,12.042-20.066,12.042-31.638s-4.4-22.395-12.042-31.638" transform="translate(8939.321 -9087.014)" fill="#fff" fill-rule="evenodd"/><path d="M58.44,130.3v63.276C50.8,184.332,46.4,173.509,46.4,161.937S50.8,139.542,58.44,130.3" transform="translate(8963.305 -9087.014)" fill="#fff" fill-rule="evenodd"/><rect width="27.792" height="7.44" transform="translate(8980.073 -8949.223)" fill="#333c4d"/><g transform="translate(8966.194 -8893.643)" opacity="0.15"><g clip-path="url(#p)"><rect width="55.55" height="2.306" transform="translate(0 -0.001)"/></g></g><rect width="55.55" height="65.377" transform="translate(8949.616 -8956.715)" fill="#ffce79"/><path d="M19.433,130.3v63.276c7.643-9.243,12.044-20.066,12.044-31.638s-4.4-22.395-12.044-31.638" transform="translate(8930.183 -9087.014)" fill="#fff" fill-rule="evenodd"/><path d="M51,130.3v63.276c-7.643-9.243-12.044-20.066-12.044-31.638S43.358,139.542,51,130.3" transform="translate(8954.165 -9087.014)" fill="#fff" fill-rule="evenodd"/><rect width="27.792" height="7.44" transform="translate(8963.494 -8949.223)" fill="#333c4d"/><g transform="translate(8949.615 -8893.643)" opacity="0.15"><g clip-path="url(#p)"><rect width="55.55" height="2.306" transform="translate(0 -0.001)"/></g></g><rect width="55.55" height="65.377" transform="translate(8933.037 -8956.715)" fill="#ffce79"/><path d="M11.993,130.3v63.276c7.643-9.243,12.042-20.066,12.042-31.638s-4.4-22.395-12.042-31.638" transform="translate(8921.044 -9087.014)" fill="#fff" fill-rule="evenodd"/><path d="M43.56,130.3v63.276c-7.643-9.243-12.042-20.066-12.042-31.638s4.4-22.395,12.042-31.638" transform="translate(8945.027 -9087.014)" fill="#fff" fill-rule="evenodd"/><rect width="27.792" height="7.44" transform="translate(8946.915 -8949.223)" fill="#333c4d"/><rect width="55.55" height="65.377" transform="translate(8966.194 -9195.932)" fill="#ffce79"/><path d="M26.873,130.3v63.276c7.643-9.243,12.042-20.066,12.042-31.638s-4.4-22.395-12.042-31.638" transform="translate(8939.321 -9326.23)" fill="#fff" fill-rule="evenodd"/><path d="M58.44,130.3v63.276C50.8,184.332,46.4,173.509,46.4,161.937S50.8,139.542,58.44,130.3" transform="translate(8963.305 -9326.23)" fill="#fff" fill-rule="evenodd"/><rect width="27.792" height="7.44" transform="translate(8980.073 -9188.439)" fill="#333c4d"/><g transform="translate(8966.194 -9132.859)" opacity="0.15"><g clip-path="url(#p)"><rect width="55.55" height="2.306" transform="translate(0 -0.001)"/></g></g><rect width="55.55" height="65.377" transform="translate(8949.616 -9195.932)" fill="#ffce79"/><path d="M19.433,130.3v63.276c7.643-9.243,12.044-20.066,12.044-31.638s-4.4-22.395-12.044-31.638" transform="translate(8930.183 -9326.23)" fill="#fff" fill-rule="evenodd"/><path d="M51,130.3v63.276c-7.643-9.243-12.044-20.066-12.044-31.638S43.358,139.542,51,130.3" transform="translate(8954.165 -9326.23)" fill="#fff" fill-rule="evenodd"/><rect width="27.792" height="7.44" transform="translate(8963.494 -9188.439)" fill="#333c4d"/><g transform="translate(8949.615 -9132.859)" opacity="0.15"><g clip-path="url(#p)"><rect width="55.55" height="2.306" transform="translate(0 -0.001)"/></g></g><rect width="55.55" height="65.377" transform="translate(8933.037 -9195.932)" fill="#ffce79"/><path d="M11.993,130.3v63.276c7.643-9.243,12.042-20.066,12.042-31.638s-4.4-22.395-12.042-31.638" transform="translate(8921.044 -9326.23)" fill="#fff" fill-rule="evenodd"/><path d="M43.56,130.3v63.276c-7.643-9.243-12.042-20.066-12.042-31.638s4.4-22.395,12.042-31.638" transform="translate(8945.027 -9326.23)" fill="#fff" fill-rule="evenodd"/><rect width="27.792" height="7.44" transform="translate(8946.915 -9188.439)" fill="#333c4d"/><g transform="translate(8933.036 -9132.859)" opacity="0.15"><g clip-path="url(#p)"><rect width="55.55" height="2.306" transform="translate(0 -0.001)"/></g></g><g transform="translate(105.581 357.112)"><rect width="55.55" height="65.377" transform="translate(8966.194 -9195.932)" fill="#ffce79"/><path d="M26.873,130.3v63.276c7.643-9.243,12.042-20.066,12.042-31.638s-4.4-22.395-12.042-31.638" transform="translate(8939.321 -9326.23)" fill="#fff" fill-rule="evenodd"/><path d="M58.44,130.3v63.276C50.8,184.332,46.4,173.509,46.4,161.937S50.8,139.542,58.44,130.3" transform="translate(8963.305 -9326.23)" fill="#fff" fill-rule="evenodd"/><rect width="27.792" height="7.44" transform="translate(8980.073 -9188.439)" fill="#333c4d"/><g transform="translate(8966.194 -9132.859)" opacity="0.15"><g clip-path="url(#p)"><rect width="55.55" height="2.306" transform="translate(0 -0.001)"/></g></g><rect width="55.55" height="65.377" transform="translate(8949.616 -9195.932)" fill="#ffce79"/><path d="M19.433,130.3v63.276c7.643-9.243,12.044-20.066,12.044-31.638s-4.4-22.395-12.044-31.638" transform="translate(8930.183 -9326.23)" fill="#fff" fill-rule="evenodd"/><path d="M51,130.3v63.276c-7.643-9.243-12.044-20.066-12.044-31.638S43.358,139.542,51,130.3" transform="translate(8954.165 -9326.23)" fill="#fff" fill-rule="evenodd"/><rect width="27.792" height="7.44" transform="translate(8963.494 -9188.439)" fill="#333c4d"/><g transform="translate(8949.615 -9132.859)" opacity="0.15"><g clip-path="url(#p)"><rect width="55.55" height="2.306" transform="translate(0 -0.001)"/></g></g><rect width="55.55" height="65.377" transform="translate(8933.037 -9195.932)" fill="#ffce79"/><path d="M11.993,130.3v63.276c7.643-9.243,12.042-20.066,12.042-31.638s-4.4-22.395-12.042-31.638" transform="translate(8921.044 -9326.23)" fill="#fff" fill-rule="evenodd"/><path d="M43.56,130.3v63.276c-7.643-9.243-12.042-20.066-12.042-31.638s4.4-22.395,12.042-31.638" transform="translate(8945.027 -9326.23)" fill="#fff" fill-rule="evenodd"/><rect width="27.792" height="7.44" transform="translate(8946.915 -9188.439)" fill="#333c4d"/><g transform="translate(8933.036 -9132.859)" opacity="0.15"><g clip-path="url(#p)"><rect width="55.55" height="2.306" transform="translate(0 -0.001)"/></g></g></g><g transform="translate(8933.036 -8893.643)" opacity="0.15"><g clip-path="url(#p)"><rect width="55.55" height="2.306" transform="translate(0 -0.001)"/></g></g><g transform="translate(9034.836 -9178.747)" opacity="0.5"><g clip-path="url(#y)"><path d="M67.482,186.2H84.963a9.834,9.834,0,0,0,9.8-9.807V147.817a9.834,9.834,0,0,0-9.8-9.807H67.482a9.833,9.833,0,0,0-9.8,9.807V176.4a9.833,9.833,0,0,0,9.8,9.807" transform="translate(-57.677 -138.011)" fill="#c1c1c1" fill-rule="evenodd"/></g></g><rect width="9.807" height="8.1" transform="translate(9048.479 -9186.847)" fill="#898989"/><g transform="translate(9036.17 -9167.563)" opacity="0.5"><g clip-path="url(#z)"><path d="M67.376,178.659H83.6a9.126,9.126,0,0,0,9.1-9.1V143.03H58.275v26.528a9.126,9.126,0,0,0,9.1,9.1" transform="translate(-58.275 -143.03)" fill="#5d9037" fill-rule="evenodd"/></g></g><rect width="2.752" height="4.385" transform="translate(9052.006 -9191.234)" fill="#898989"/><path d="M65.382,133.994h16.1v-1.439a1.441,1.441,0,0,0-1.437-1.439H65.382Z" transform="translate(8986.624 -9325.229)" fill="#898989" fill-rule="evenodd"/><g transform="translate(9073.807 -9178.747)" opacity="0.5"><g clip-path="url(#y)"><path d="M84.971,186.2h17.481a9.834,9.834,0,0,0,9.8-9.807V147.817a9.834,9.834,0,0,0-9.8-9.807H84.971a9.833,9.833,0,0,0-9.8,9.807V176.4a9.833,9.833,0,0,0,9.8,9.807" transform="translate(-75.165 -138.011)" fill="#c1c1c1" fill-rule="evenodd"/></g></g><rect width="9.807" height="8.1" transform="translate(9087.45 -9186.847)" fill="#898989"/><g transform="translate(9075.14 -9167.563)" opacity="0.5"><g clip-path="url(#z)"><path d="M84.865,178.659h16.227a9.126,9.126,0,0,0,9.1-9.1V143.03H75.764v26.528a9.126,9.126,0,0,0,9.1,9.1" transform="translate(-75.764 -143.03)" fill="#5d9037" fill-rule="evenodd"/></g></g><rect width="2.752" height="4.385" transform="translate(9090.978 -9191.234)" fill="#898989"/><path d="M82.871,133.994h16.1v-1.439a1.442,1.442,0,0,0-1.44-1.439H82.871Z" transform="translate(9008.106 -9325.229)" fill="#898989" fill-rule="evenodd"/><g transform="translate(9112.777 -9178.747)" opacity="0.5"><g clip-path="url(#y)"><path d="M102.46,186.2h17.481a9.834,9.834,0,0,0,9.8-9.807V147.817a9.834,9.834,0,0,0-9.8-9.807H102.46a9.833,9.833,0,0,0-9.8,9.807V176.4a9.833,9.833,0,0,0,9.8,9.807" transform="translate(-92.653 -138.011)" fill="#c1c1c1" fill-rule="evenodd"/></g></g><rect width="9.807" height="8.1" transform="translate(9126.421 -9186.847)" fill="#898989"/><g transform="translate(9114.111 -9167.563)" opacity="0.5"><g clip-path="url(#z)"><path d="M102.353,178.659h16.227a9.126,9.126,0,0,0,9.1-9.1V143.03H93.252v26.528a9.128,9.128,0,0,0,9.1,9.1" transform="translate(-93.253 -143.03)" fill="#5d9037" fill-rule="evenodd"/></g></g><rect width="2.752" height="4.385" transform="translate(9129.946 -9191.234)" fill="#898989"/><path d="M100.36,133.994h16.1v-1.439a1.442,1.442,0,0,0-1.439-1.439H100.36Z" transform="translate(9029.589 -9325.229)" fill="#898989" fill-rule="evenodd"/><g transform="translate(319.523 -118.972)"><g transform="translate(9034.836 -8939.53)" opacity="0.5"><g clip-path="url(#ae)"><path d="M67.482,186.2H84.963a9.834,9.834,0,0,0,9.8-9.807V147.817a9.834,9.834,0,0,0-9.8-9.807H67.482a9.833,9.833,0,0,0-9.8,9.807V176.4a9.833,9.833,0,0,0,9.8,9.807" transform="translate(-57.677 -138.011)" fill="#d2d2d2" fill-rule="evenodd"/></g></g><rect width="9.807" height="8.1" transform="translate(9048.479 -8947.63)" fill="#898989"/><g transform="translate(9036.17 -8928.346)" opacity="0.5"><g clip-path="url(#af)"><path d="M67.376,178.659H83.6a9.126,9.126,0,0,0,9.1-9.1V143.03H58.275v26.528a9.126,9.126,0,0,0,9.1,9.1" transform="translate(-58.275 -143.03)" fill="#12263f" fill-rule="evenodd"/></g></g><rect width="2.752" height="4.385" transform="translate(9052.006 -8952.018)" fill="#898989"/><path d="M65.382,133.994h16.1v-1.439a1.441,1.441,0,0,0-1.437-1.439H65.382Z" transform="translate(8986.624 -9086.012)" fill="#898989" fill-rule="evenodd"/><g transform="translate(9073.807 -8939.53)" opacity="0.5"><g clip-path="url(#ae)"><path d="M84.971,186.2h17.481a9.834,9.834,0,0,0,9.8-9.807V147.817a9.834,9.834,0,0,0-9.8-9.807H84.971a9.833,9.833,0,0,0-9.8,9.807V176.4a9.833,9.833,0,0,0,9.8,9.807" transform="translate(-75.165 -138.011)" fill="#d2d2d2" fill-rule="evenodd"/></g></g><rect width="9.807" height="8.1" transform="translate(9087.45 -8947.63)" fill="#898989"/><g transform="translate(9075.14 -8928.346)" opacity="0.5"><g clip-path="url(#af)"><path d="M84.865,178.659h16.227a9.126,9.126,0,0,0,9.1-9.1V143.03H75.764v26.528a9.126,9.126,0,0,0,9.1,9.1" transform="translate(-75.764 -143.03)" fill="#12263f" fill-rule="evenodd"/></g></g><rect width="2.752" height="4.385" transform="translate(9090.978 -8952.018)" fill="#898989"/><path d="M82.871,133.994h16.1v-1.439a1.442,1.442,0,0,0-1.44-1.439H82.871Z" transform="translate(9008.106 -9086.012)" fill="#898989" fill-rule="evenodd"/><g transform="translate(9112.777 -8939.53)" opacity="0.5"><g clip-path="url(#ae)"><path d="M102.46,186.2h17.481a9.834,9.834,0,0,0,9.8-9.807V147.817a9.834,9.834,0,0,0-9.8-9.807H102.46a9.833,9.833,0,0,0-9.8,9.807V176.4a9.833,9.833,0,0,0,9.8,9.807" transform="translate(-92.653 -138.011)" fill="#d2d2d2" fill-rule="evenodd"/></g></g><rect width="9.807" height="8.1" transform="translate(9126.421 -8947.63)" fill="#898989"/><g transform="translate(9114.111 -8928.346)" opacity="0.5"><g clip-path="url(#af)"><path d="M102.353,178.659h16.227a9.126,9.126,0,0,0,9.1-9.1V143.03H93.252v26.528a9.128,9.128,0,0,0,9.1,9.1" transform="translate(-93.253 -143.03)" fill="#12263f" fill-rule="evenodd"/></g></g><rect width="2.752" height="4.385" transform="translate(9129.946 -8952.018)" fill="#898989"/><path d="M100.36,133.994h16.1v-1.439a1.442,1.442,0,0,0-1.439-1.439H100.36Z" transform="translate(9029.589 -9086.012)" fill="#898989" fill-rule="evenodd"/></g><rect width="63.443" height="21.305" transform="translate(8922.103 -9271.176)" fill="#02629e"/><rect width="63.443" height="21.305" transform="translate(8917.103 -9031.959)" fill="#02629e"/><path d="M7.086,117.837H70.529V96.532c-10.894,13.916-49.888,6.132-63.443,21.305" transform="translate(8915.017 -9367.708)" fill="#fff" fill-rule="evenodd"/><path d="M7.086,117.837H70.529V96.532c-10.894,13.916-49.888,6.132-63.443,21.305" transform="translate(8910.017 -9128.491)" fill="#fff" fill-rule="evenodd"/><g transform="translate(8922.103 -9251.863)" opacity="0.15"><g clip-path="url(#ak)"><rect width="63.443" height="1.992"/></g></g><g transform="translate(8917.103 -9012.646)" opacity="0.15"><g clip-path="url(#ak)"><rect width="63.443" height="1.992"/></g></g><rect width="27.848" height="2.701" transform="translate(8925.579 -9268.057)" fill="#fff"/><rect width="27.848" height="2.701" transform="translate(8920.579 -9028.84)" fill="#fff"/><rect width="63.443" height="21.307" transform="translate(8922.103 -9292.483)" fill="#02629e"/><rect width="63.443" height="21.307" transform="translate(8917.103 -9053.267)" fill="#02629e"/><path d="M7.086,108.279H70.529V86.969c-10.894,13.918-49.888,6.137-63.443,21.31" transform="translate(8915.017 -9379.455)" fill="#fff" fill-rule="evenodd"/><path d="M7.086,108.279H70.529V86.969c-10.894,13.918-49.888,6.137-63.443,21.31" transform="translate(8910.017 -9140.238)" fill="#fff" fill-rule="evenodd"/><g transform="translate(8922.103 -9273.17)" opacity="0.15"><g clip-path="url(#ak)"><rect width="63.443" height="1.992" transform="translate(0 0.001)"/></g></g><g transform="translate(8917.103 -9033.953)" opacity="0.15"><g clip-path="url(#ak)"><rect width="63.443" height="1.992" transform="translate(0 0.001)"/></g></g><rect width="27.848" height="2.701" transform="translate(8925.579 -9289.361)" fill="#fff"/><rect width="27.848" height="2.701" transform="translate(8920.579 -9050.145)" fill="#fff"/><rect width="63.443" height="21.307" transform="translate(8922.103 -9313.791)" fill="#02629e"/><rect width="63.443" height="21.307" transform="translate(8917.103 -9074.574)" fill="#02629e"/><path d="M7.086,98.715H70.529V77.408C59.635,91.328,20.641,83.545,7.086,98.715" transform="translate(8915.017 -9391.199)" fill="#fff" fill-rule="evenodd"/><path d="M7.086,98.715H70.529V77.408C59.635,91.328,20.641,83.545,7.086,98.715" transform="translate(8910.017 -9151.982)" fill="#fff" fill-rule="evenodd"/><g transform="translate(8922.103 -9294.476)" opacity="0.15"><g clip-path="url(#ao)"><rect width="63.443" height="1.992" transform="translate(0 0)"/></g></g><g transform="translate(8917.103 -9055.259)" opacity="0.15"><g clip-path="url(#ao)"><rect width="63.443" height="1.992" transform="translate(0 0)"/></g></g><rect width="27.848" height="2.701" transform="translate(8925.579 -9310.669)" fill="#fff"/><rect width="27.848" height="2.701" transform="translate(8920.579 -9071.452)" fill="#fff"/><rect width="63.443" height="21.305" transform="translate(8987.13 -9271.176)" fill="#02629e"/><rect width="63.443" height="21.305" transform="translate(8982.13 -9031.959)" fill="#02629e"/><path d="M36.268,117.837H99.711V96.532c-10.894,13.916-49.888,6.132-63.443,21.305" transform="translate(8950.862 -9367.708)" fill="#fff" fill-rule="evenodd"/><path d="M36.268,117.837H99.711V96.532c-10.894,13.916-49.888,6.132-63.443,21.305" transform="translate(8945.862 -9128.491)" fill="#fff" fill-rule="evenodd"/><g transform="translate(8987.131 -9251.863)" opacity="0.15"><g clip-path="url(#ak)"><rect width="63.443" height="1.992" transform="translate(-0.001)"/></g></g><g transform="translate(8982.131 -9012.646)" opacity="0.15"><g clip-path="url(#ak)"><rect width="63.443" height="1.992" transform="translate(-0.001)"/></g></g><rect width="27.848" height="2.701" transform="translate(8990.608 -9268.057)" fill="#fff"/><rect width="27.848" height="2.701" transform="translate(8985.608 -9028.84)" fill="#fff"/><rect width="63.443" height="21.307" transform="translate(8987.13 -9292.483)" fill="#02629e"/><rect width="63.443" height="21.307" transform="translate(8982.13 -9053.267)" fill="#02629e"/><path d="M36.268,108.279H99.711V86.969c-10.894,13.918-49.888,6.137-63.443,21.31" transform="translate(8950.862 -9379.455)" fill="#fff" fill-rule="evenodd"/><path d="M36.268,108.279H99.711V86.969c-10.894,13.918-49.888,6.137-63.443,21.31" transform="translate(8945.862 -9140.238)" fill="#fff" fill-rule="evenodd"/><g transform="translate(8987.131 -9273.17)" opacity="0.15"><g clip-path="url(#ak)"><rect width="63.443" height="1.992" transform="translate(-0.001 0.001)"/></g></g><g transform="translate(8982.131 -9033.953)" opacity="0.15"><g clip-path="url(#ak)"><rect width="63.443" height="1.992" transform="translate(-0.001 0.001)"/></g></g><rect width="27.848" height="2.701" transform="translate(8990.608 -9289.361)" fill="#fff"/><rect width="27.848" height="2.701" transform="translate(8985.608 -9050.145)" fill="#fff"/><rect width="63.443" height="21.307" transform="translate(8987.13 -9313.791)" fill="#02629e"/><rect width="63.443" height="21.307" transform="translate(8982.13 -9074.574)" fill="#02629e"/><path d="M36.268,98.715H99.711V77.408c-10.894,13.92-49.888,6.137-63.443,21.307" transform="translate(8950.862 -9391.199)" fill="#fff" fill-rule="evenodd"/><path d="M36.268,98.715H99.711V77.408c-10.894,13.92-49.888,6.137-63.443,21.307" transform="translate(8945.862 -9151.982)" fill="#fff" fill-rule="evenodd"/><g transform="translate(8987.131 -9294.476)" opacity="0.15"><g clip-path="url(#ao)"><rect width="63.443" height="1.992" transform="translate(-0.001 0)"/></g></g><g transform="translate(8982.131 -9055.259)" opacity="0.15"><g clip-path="url(#ao)"><rect width="63.443" height="1.992" transform="translate(-0.001 0)"/></g></g><rect width="27.848" height="2.701" transform="translate(8990.608 -9310.669)" fill="#fff"/><rect width="27.848" height="2.701" transform="translate(8985.608 -9071.452)" fill="#fff"/><rect width="23.736" height="55.86" transform="translate(9066.477 -9305.73)" fill="#cccaff"/><path d="M81.786,99.646a8.318,8.318,0,1,0-8.318-8.318,8.335,8.335,0,0,0,8.318,8.318" transform="translate(8996.557 -9384.318)" fill="#fff" fill-rule="evenodd"/><g transform="translate(9066.477 -9252.211)" opacity="0.15"><g clip-path="url(#aw)"><rect width="23.736" height="2.34" transform="translate(0 0)"/></g></g><rect width="16.637" height="5.968" transform="translate(9070.026 -9261.71)" fill="#fff"/><rect width="23.736" height="55.86" transform="translate(9092.036 -9305.73)" fill="#cccaff"/><path d="M93.256,99.646a8.318,8.318,0,1,0-8.318-8.318,8.335,8.335,0,0,0,8.318,8.318" transform="translate(9010.646 -9384.318)" fill="#fff" fill-rule="evenodd"/><g transform="translate(9092.035 -9252.211)" opacity="0.15"><g clip-path="url(#aw)"><rect width="23.736" height="2.34" transform="translate(0 0)"/></g></g><rect width="16.637" height="5.968" transform="translate(9095.586 -9261.71)" fill="#fff"/><rect width="23.734" height="55.86" transform="translate(9117.595 -9305.73)" fill="#cccaff"/><path d="M104.727,99.646a8.318,8.318,0,1,0-8.318-8.318,8.335,8.335,0,0,0,8.318,8.318" transform="translate(9024.735 -9384.318)" fill="#fff" fill-rule="evenodd"/><g transform="translate(9117.595 -9252.211)" opacity="0.15"><g clip-path="url(#ay)"><rect width="23.734" height="2.34" transform="translate(0 0)"/></g></g><rect width="16.637" height="5.968" transform="translate(9121.145 -9261.71)" fill="#fff"/><g transform="translate(8922.186 -9371.18)" opacity="0.15"><g clip-path="url(#az)"><rect width="27.558" height="1.992" transform="translate(-0.001)"/></g></g><g transform="translate(8951.774 -9371.18)" opacity="0.15"><g clip-path="url(#az)"><rect width="27.556" height="1.992" transform="translate(0.001)"/></g></g><g transform="translate(8981.362 -9371.18)" opacity="0.15"><g clip-path="url(#az)"><rect width="27.558" height="1.992" transform="translate(0.001)"/></g></g><path d="M195.163,161.271a3.548,3.548,0,1,0-3.548-3.547,3.554,3.554,0,0,0,3.548,3.547" transform="translate(9141.682 -9296.901)" fill="#fec60d" fill-rule="evenodd"/><path d="M195.163,161.271a3.548,3.548,0,1,0-3.548-3.547,3.554,3.554,0,0,0,3.548,3.547" transform="translate(9141.682 -9057.685)" fill="#fec60d" fill-rule="evenodd"/><path d="M198.161,163.161a3.549,3.549,0,1,0-3.547-3.548,3.554,3.554,0,0,0,3.547,3.548" transform="translate(9145.365 -9294.582)" fill="#fec60d" fill-rule="evenodd"/><path d="M198.161,163.161a3.549,3.549,0,1,0-3.547-3.548,3.554,3.554,0,0,0,3.547,3.548" transform="translate(9145.365 -9055.365)" fill="#fec60d" fill-rule="evenodd"/><path d="M198.384,159.457a3.548,3.548,0,1,0-3.548-3.548,3.554,3.554,0,0,0,3.548,3.548" transform="translate(9145.638 -9299.13)" fill="#fec60d" fill-rule="evenodd"/><path d="M198.384,159.457a3.548,3.548,0,1,0-3.548-3.548,3.554,3.554,0,0,0,3.548,3.548" transform="translate(9145.638 -9059.913)" fill="#fec60d" fill-rule="evenodd"/><path d="M194.138,157.45a3.549,3.549,0,1,0-3.547-3.548,3.554,3.554,0,0,0,3.547,3.548" transform="translate(9140.423 -9301.598)" fill="#fec60d" fill-rule="evenodd"/><path d="M194.138,157.45a3.549,3.549,0,1,0-3.547-3.548,3.554,3.554,0,0,0,3.547,3.548" transform="translate(9140.423 -9062.381)" fill="#fec60d" fill-rule="evenodd"/><path d="M201.864,162.567a3.548,3.548,0,1,0-3.547-3.548,3.554,3.554,0,0,0,3.547,3.548" transform="translate(9149.913 -9295.31)" fill="#fec60d" fill-rule="evenodd"/><path d="M201.864,162.567a3.548,3.548,0,1,0-3.547-3.548,3.554,3.554,0,0,0,3.547,3.548" transform="translate(9149.913 -9056.093)" fill="#fec60d" fill-rule="evenodd"/><path d="M205.42,162.79a3.548,3.548,0,1,0-3.548-3.547,3.554,3.554,0,0,0,3.548,3.547" transform="translate(9154.28 -9295.035)" fill="#fec60d" fill-rule="evenodd"/><path d="M205.42,162.79a3.548,3.548,0,1,0-3.548-3.547,3.554,3.554,0,0,0,3.548,3.547" transform="translate(9154.28 -9055.818)" fill="#fec60d" fill-rule="evenodd"/><path d="M209.642,162.939a3.549,3.549,0,1,0-3.548-3.548,3.554,3.554,0,0,0,3.548,3.548" transform="translate(9159.466 -9294.855)" fill="#fec60d" fill-rule="evenodd"/><path d="M209.642,162.939a3.549,3.549,0,1,0-3.548-3.548,3.554,3.554,0,0,0,3.548,3.548" transform="translate(9159.466 -9055.639)" fill="#fec60d" fill-rule="evenodd"/><path d="M213.271,162.125a3.549,3.549,0,1,0-3.548-3.548,3.556,3.556,0,0,0,3.548,3.548" transform="translate(9163.924 -9295.854)" fill="#fec60d" fill-rule="evenodd"/><path d="M213.271,162.125a3.549,3.549,0,1,0-3.548-3.548,3.556,3.556,0,0,0,3.548,3.548" transform="translate(9163.924 -9056.638)" fill="#fec60d" fill-rule="evenodd"/><path d="M213.682,157.45a3.549,3.549,0,1,0-3.548-3.548,3.554,3.554,0,0,0,3.548,3.548" transform="translate(9164.429 -9301.598)" fill="#fec60d" fill-rule="evenodd"/><path d="M213.682,157.45a3.549,3.549,0,1,0-3.548-3.548,3.554,3.554,0,0,0,3.548,3.548" transform="translate(9164.429 -9062.381)" fill="#fec60d" fill-rule="evenodd"/><path d="M210.6,159.457a3.548,3.548,0,1,0-3.547-3.548,3.554,3.554,0,0,0,3.547,3.548" transform="translate(9160.647 -9299.13)" fill="#fec60d" fill-rule="evenodd"/><path d="M210.6,159.457a3.548,3.548,0,1,0-3.547-3.548,3.554,3.554,0,0,0,3.547,3.548" transform="translate(9160.647 -9059.913)" fill="#fec60d" fill-rule="evenodd"/><path d="M206.308,159.384a3.549,3.549,0,1,0-3.548-3.548,3.554,3.554,0,0,0,3.548,3.548" transform="translate(9155.372 -9299.222)" fill="#fec60d" fill-rule="evenodd"/><path d="M206.308,159.384a3.549,3.549,0,1,0-3.548-3.548,3.554,3.554,0,0,0,3.548,3.548" transform="translate(9155.372 -9060.005)" fill="#fec60d" fill-rule="evenodd"/><path d="M202.828,158.494a3.548,3.548,0,1,0-3.548-3.548,3.554,3.554,0,0,0,3.548,3.548" transform="translate(9151.097 -9300.313)" fill="#fec60d" fill-rule="evenodd"/><path d="M202.828,158.494a3.548,3.548,0,1,0-3.548-3.548,3.554,3.554,0,0,0,3.548,3.548" transform="translate(9151.097 -9061.096)" fill="#fec60d" fill-rule="evenodd"/><path d="M194.138,151.384a3.548,3.548,0,1,0-3.547-3.548,3.554,3.554,0,0,0,3.547,3.548" transform="translate(9140.423 -9309.046)" fill="#fec60d" fill-rule="evenodd"/><path d="M194.138,151.384a3.548,3.548,0,1,0-3.547-3.548,3.554,3.554,0,0,0,3.547,3.548" transform="translate(9140.423 -9069.829)" fill="#fec60d" fill-rule="evenodd"/><path d="M198.088,148.867a3.549,3.549,0,1,0-3.548-3.55,3.554,3.554,0,0,0,3.548,3.55" transform="translate(9145.274 -9312.141)" fill="#fec60d" fill-rule="evenodd"/><path d="M198.088,148.867a3.549,3.549,0,1,0-3.548-3.55,3.554,3.554,0,0,0,3.548,3.55" transform="translate(9145.274 -9072.924)" fill="#fec60d" fill-rule="evenodd"/><path d="M194.459,146.127a3.549,3.549,0,1,0-3.548-3.548,3.554,3.554,0,0,0,3.548,3.548" transform="translate(9140.816 -9315.506)" fill="#fec60d" fill-rule="evenodd"/><path d="M194.459,146.127a3.549,3.549,0,1,0-3.548-3.548,3.554,3.554,0,0,0,3.548,3.548" transform="translate(9140.816 -9076.289)" fill="#fec60d" fill-rule="evenodd"/><path d="M200.236,145.238a3.549,3.549,0,1,0-3.548-3.548,3.554,3.554,0,0,0,3.548,3.548" transform="translate(9147.912 -9316.598)" fill="#fec60d" fill-rule="evenodd"/><path d="M200.236,145.238a3.549,3.549,0,1,0-3.548-3.548,3.554,3.554,0,0,0,3.548,3.548" transform="translate(9147.912 -9077.381)" fill="#fec60d" fill-rule="evenodd"/><path d="M203.124,149.612a3.549,3.549,0,1,0-3.547-3.548,3.554,3.554,0,0,0,3.547,3.548" transform="translate(9151.46 -9311.226)" fill="#fec60d" fill-rule="evenodd"/><path d="M203.124,149.612a3.549,3.549,0,1,0-3.547-3.548,3.554,3.554,0,0,0,3.547,3.548" transform="translate(9151.46 -9072.009)" fill="#fec60d" fill-rule="evenodd"/><path d="M206.013,146.942a3.549,3.549,0,1,0-3.548-3.548,3.554,3.554,0,0,0,3.548,3.548" transform="translate(9155.009 -9314.505)" fill="#fec60d" fill-rule="evenodd"/><path d="M206.013,146.942a3.549,3.549,0,1,0-3.548-3.548,3.554,3.554,0,0,0,3.548,3.548" transform="translate(9155.009 -9075.288)" fill="#fec60d" fill-rule="evenodd"/><path d="M209.271,150.2a3.549,3.549,0,1,0-3.548-3.548,3.554,3.554,0,0,0,3.548,3.548" transform="translate(9159.011 -9310.503)" fill="#fec60d" fill-rule="evenodd"/><path d="M209.271,150.2a3.549,3.549,0,1,0-3.548-3.548,3.554,3.554,0,0,0,3.548,3.548" transform="translate(9159.011 -9071.286)" fill="#fec60d" fill-rule="evenodd"/><path d="M211.2,145.829a3.548,3.548,0,1,0-3.548-3.55,3.554,3.554,0,0,0,3.548,3.55" transform="translate(9161.376 -9315.869)" fill="#fec60d" fill-rule="evenodd"/><path d="M211.2,145.829a3.548,3.548,0,1,0-3.548-3.55,3.554,3.554,0,0,0,3.548,3.55" transform="translate(9161.376 -9076.652)" fill="#fec60d" fill-rule="evenodd"/><path d="M213.682,149.612a3.549,3.549,0,1,0-3.548-3.548,3.554,3.554,0,0,0,3.548,3.548" transform="translate(9164.429 -9311.226)" fill="#fec60d" fill-rule="evenodd"/><path d="M213.682,149.612a3.549,3.549,0,1,0-3.548-3.548,3.554,3.554,0,0,0,3.548,3.548" transform="translate(9164.429 -9072.009)" fill="#fec60d" fill-rule="evenodd"/><path d="M213.682,153.532a3.549,3.549,0,1,0-3.548-3.547,3.554,3.554,0,0,0,3.548,3.547" transform="translate(9164.429 -9306.41)" fill="#fec60d" fill-rule="evenodd"/><path d="M213.682,153.532a3.549,3.549,0,1,0-3.548-3.547,3.554,3.554,0,0,0,3.548,3.547" transform="translate(9164.429 -9067.193)" fill="#fec60d" fill-rule="evenodd"/><g transform="translate(9327.834 -9182.301)" opacity="0.5"><g clip-path="url(#bc)"><path d="M239.8,188.163H195.536a6.388,6.388,0,0,1-6.371-6.371V142.785a6.387,6.387,0,0,1,6.371-6.369H239.8a6.389,6.389,0,0,1,6.371,6.369v39.007a6.389,6.389,0,0,1-6.371,6.371" transform="translate(-189.163 -136.416)" fill="#e8e8e8" fill-rule="evenodd"/></g></g><g transform="translate(9327.834 -8943.084)" opacity="0.5"><g clip-path="url(#bc)"><path d="M239.8,188.163H195.536a6.388,6.388,0,0,1-6.371-6.371V142.785a6.387,6.387,0,0,1,6.371-6.369H239.8a6.389,6.389,0,0,1,6.371,6.369v39.007a6.389,6.389,0,0,1-6.371,6.371" transform="translate(-189.163 -136.416)" fill="#e8e8e8" fill-rule="evenodd"/></g></g><path d="M236.283,140.193v-4.869a1.991,1.991,0,0,0-1.985-1.983H194.007a1.989,1.989,0,0,0-1.983,1.983v4.869Z" transform="translate(9142.184 -9322.494)" fill="#12263f" fill-rule="evenodd"/><path d="M236.283,140.193v-4.869a1.991,1.991,0,0,0-1.985-1.983H194.007a1.989,1.989,0,0,0-1.983,1.983v4.869Z" transform="translate(9142.184 -9083.277)" fill="#12263f" fill-rule="evenodd"/><rect width="43.548" height="17.466" transform="translate(9334.562 -9165.16)" fill="#12263f"/><rect width="43.548" height="17.466" transform="translate(9334.562 -8925.943)" fill="#12263f"/><path d="M243.342,161.271a3.548,3.548,0,1,0-3.548-3.547,3.554,3.554,0,0,0,3.548,3.547" transform="translate(9200.861 -9296.901)" fill="#fec60d" fill-rule="evenodd"/><path d="M243.342,161.271a3.548,3.548,0,1,0-3.548-3.547,3.554,3.554,0,0,0,3.548,3.547" transform="translate(9200.861 -9057.685)" fill="#fec60d" fill-rule="evenodd"/><path d="M240.342,163.161a3.549,3.549,0,1,0-3.548-3.548,3.556,3.556,0,0,0,3.548,3.548" transform="translate(9197.178 -9294.582)" fill="#fec60d" fill-rule="evenodd"/><path d="M240.342,163.161a3.549,3.549,0,1,0-3.548-3.548,3.556,3.556,0,0,0,3.548,3.548" transform="translate(9197.178 -9055.365)" fill="#fec60d" fill-rule="evenodd"/><path d="M240.12,159.457a3.548,3.548,0,1,0-3.547-3.548,3.554,3.554,0,0,0,3.547,3.548" transform="translate(9196.905 -9299.13)" fill="#fec60d" fill-rule="evenodd"/><path d="M240.12,159.457a3.548,3.548,0,1,0-3.547-3.548,3.554,3.554,0,0,0,3.547,3.548" transform="translate(9196.905 -9059.913)" fill="#fec60d" fill-rule="evenodd"/><path d="M244.366,157.45a3.549,3.549,0,1,0-3.548-3.548,3.556,3.556,0,0,0,3.548,3.548" transform="translate(9202.119 -9301.598)" fill="#fec60d" fill-rule="evenodd"/><path d="M244.366,157.45a3.549,3.549,0,1,0-3.548-3.548,3.556,3.556,0,0,0,3.548,3.548" transform="translate(9202.119 -9062.381)" fill="#fec60d" fill-rule="evenodd"/><path d="M236.639,162.567a3.548,3.548,0,1,0-3.548-3.548,3.554,3.554,0,0,0,3.548,3.548" transform="translate(9192.629 -9295.31)" fill="#fec60d" fill-rule="evenodd"/><path d="M236.639,162.567a3.548,3.548,0,1,0-3.548-3.548,3.554,3.554,0,0,0,3.548,3.548" transform="translate(9192.629 -9056.093)" fill="#fec60d" fill-rule="evenodd"/><path d="M233.084,162.79a3.548,3.548,0,1,0-3.548-3.547,3.554,3.554,0,0,0,3.548,3.547" transform="translate(9188.263 -9295.035)" fill="#fec60d" fill-rule="evenodd"/><path d="M233.084,162.79a3.548,3.548,0,1,0-3.548-3.547,3.554,3.554,0,0,0,3.548,3.547" transform="translate(9188.263 -9055.818)" fill="#fec60d" fill-rule="evenodd"/><path d="M228.863,162.939a3.549,3.549,0,1,0-3.547-3.548,3.556,3.556,0,0,0,3.547,3.548" transform="translate(9183.076 -9294.855)" fill="#fec60d" fill-rule="evenodd"/><path d="M228.863,162.939a3.549,3.549,0,1,0-3.547-3.548,3.556,3.556,0,0,0,3.547,3.548" transform="translate(9183.076 -9055.639)" fill="#fec60d" fill-rule="evenodd"/><path d="M225.233,162.125a3.549,3.549,0,1,0-3.548-3.548,3.554,3.554,0,0,0,3.548,3.548" transform="translate(9178.618 -9295.854)" fill="#fec60d" fill-rule="evenodd"/><path d="M225.233,162.125a3.549,3.549,0,1,0-3.548-3.548,3.554,3.554,0,0,0,3.548,3.548" transform="translate(9178.618 -9056.638)" fill="#fec60d" fill-rule="evenodd"/><path d="M224.823,157.45a3.549,3.549,0,1,0-3.548-3.548,3.554,3.554,0,0,0,3.548,3.548" transform="translate(9178.113 -9301.598)" fill="#fec60d" fill-rule="evenodd"/><path d="M224.823,157.45a3.549,3.549,0,1,0-3.548-3.548,3.554,3.554,0,0,0,3.548,3.548" transform="translate(9178.113 -9062.381)" fill="#fec60d" fill-rule="evenodd"/><path d="M227.9,159.457a3.548,3.548,0,1,0-3.548-3.548,3.556,3.556,0,0,0,3.548,3.548" transform="translate(9181.895 -9299.13)" fill="#fec60d" fill-rule="evenodd"/><path d="M227.9,159.457a3.548,3.548,0,1,0-3.548-3.548,3.556,3.556,0,0,0,3.548,3.548" transform="translate(9181.895 -9059.913)" fill="#fec60d" fill-rule="evenodd"/><path d="M232.2,159.384a3.549,3.549,0,1,0-3.548-3.548,3.556,3.556,0,0,0,3.548,3.548" transform="translate(9187.17 -9299.222)" fill="#fec60d" fill-rule="evenodd"/><path d="M232.2,159.384a3.549,3.549,0,1,0-3.548-3.548,3.556,3.556,0,0,0,3.548,3.548" transform="translate(9187.17 -9060.005)" fill="#fec60d" fill-rule="evenodd"/><path d="M235.676,158.494a3.548,3.548,0,1,0-3.547-3.548,3.554,3.554,0,0,0,3.547,3.548" transform="translate(9191.446 -9300.313)" fill="#fec60d" fill-rule="evenodd"/><path d="M235.676,158.494a3.548,3.548,0,1,0-3.547-3.548,3.554,3.554,0,0,0,3.547,3.548" transform="translate(9191.446 -9061.096)" fill="#fec60d" fill-rule="evenodd"/><path d="M244.366,151.384a3.548,3.548,0,1,0-3.548-3.548,3.556,3.556,0,0,0,3.548,3.548" transform="translate(9202.119 -9309.046)" fill="#fec60d" fill-rule="evenodd"/><path d="M244.366,151.384a3.548,3.548,0,1,0-3.548-3.548,3.556,3.556,0,0,0,3.548,3.548" transform="translate(9202.119 -9069.829)" fill="#fec60d" fill-rule="evenodd"/><path d="M240.417,148.867a3.549,3.549,0,1,0-3.548-3.55,3.554,3.554,0,0,0,3.548,3.55" transform="translate(9197.269 -9312.141)" fill="#fec60d" fill-rule="evenodd"/><path d="M240.417,148.867a3.549,3.549,0,1,0-3.548-3.55,3.554,3.554,0,0,0,3.548,3.55" transform="translate(9197.269 -9072.924)" fill="#fec60d" fill-rule="evenodd"/><path d="M244.046,146.127a3.549,3.549,0,1,0-3.547-3.548,3.554,3.554,0,0,0,3.547,3.548" transform="translate(9201.727 -9315.506)" fill="#fec60d" fill-rule="evenodd"/><path d="M244.046,146.127a3.549,3.549,0,1,0-3.547-3.548,3.554,3.554,0,0,0,3.547,3.548" transform="translate(9201.727 -9076.289)" fill="#fec60d" fill-rule="evenodd"/><path d="M238.269,145.238a3.549,3.549,0,1,0-3.548-3.548,3.554,3.554,0,0,0,3.548,3.548" transform="translate(9194.63 -9316.598)" fill="#fec60d" fill-rule="evenodd"/><path d="M238.269,145.238a3.549,3.549,0,1,0-3.548-3.548,3.554,3.554,0,0,0,3.548,3.548" transform="translate(9194.63 -9077.381)" fill="#fec60d" fill-rule="evenodd"/><path d="M235.381,149.612a3.549,3.549,0,1,0-3.548-3.548,3.554,3.554,0,0,0,3.548,3.548" transform="translate(9191.083 -9311.226)" fill="#fec60d" fill-rule="evenodd"/><path d="M235.381,149.612a3.549,3.549,0,1,0-3.548-3.548,3.554,3.554,0,0,0,3.548,3.548" transform="translate(9191.083 -9072.009)" fill="#fec60d" fill-rule="evenodd"/><path d="M232.492,146.942a3.549,3.549,0,1,0-3.548-3.548,3.554,3.554,0,0,0,3.548,3.548" transform="translate(9187.534 -9314.505)" fill="#fec60d" fill-rule="evenodd"/><path d="M232.492,146.942a3.549,3.549,0,1,0-3.548-3.548,3.554,3.554,0,0,0,3.548,3.548" transform="translate(9187.534 -9075.288)" fill="#fec60d" fill-rule="evenodd"/><path d="M229.233,150.2a3.549,3.549,0,1,0-3.547-3.548,3.554,3.554,0,0,0,3.547,3.548" transform="translate(9183.532 -9310.503)" fill="#fec60d" fill-rule="evenodd"/><path d="M229.233,150.2a3.549,3.549,0,1,0-3.547-3.548,3.554,3.554,0,0,0,3.547,3.548" transform="translate(9183.532 -9071.286)" fill="#fec60d" fill-rule="evenodd"/><path d="M227.307,145.829a3.548,3.548,0,1,0-3.548-3.55,3.554,3.554,0,0,0,3.548,3.55" transform="translate(9181.166 -9315.869)" fill="#fec60d" fill-rule="evenodd"/><path d="M227.307,145.829a3.548,3.548,0,1,0-3.548-3.55,3.554,3.554,0,0,0,3.548,3.55" transform="translate(9181.166 -9076.652)" fill="#fec60d" fill-rule="evenodd"/><path d="M224.823,149.612a3.549,3.549,0,1,0-3.548-3.548,3.554,3.554,0,0,0,3.548,3.548" transform="translate(9178.113 -9311.226)" fill="#fec60d" fill-rule="evenodd"/><path d="M224.823,149.612a3.549,3.549,0,1,0-3.548-3.548,3.554,3.554,0,0,0,3.548,3.548" transform="translate(9178.113 -9072.009)" fill="#fec60d" fill-rule="evenodd"/><path d="M224.823,153.532a3.549,3.549,0,1,0-3.548-3.547,3.554,3.554,0,0,0,3.548,3.547" transform="translate(9178.113 -9306.41)" fill="#fec60d" fill-rule="evenodd"/><path d="M224.823,153.532a3.549,3.549,0,1,0-3.548-3.547,3.554,3.554,0,0,0,3.548,3.547" transform="translate(9178.113 -9067.193)" fill="#fec60d" fill-rule="evenodd"/><g transform="translate(9395.785 -9182.301)" opacity="0.5"><g clip-path="url(#bc)"><path d="M270.288,188.163H226.029a6.388,6.388,0,0,1-6.371-6.371V142.785a6.387,6.387,0,0,1,6.371-6.369h44.259a6.388,6.388,0,0,1,6.371,6.369v39.007a6.388,6.388,0,0,1-6.371,6.371" transform="translate(-219.658 -136.416)" fill="#e8e8e8" fill-rule="evenodd"/></g></g><g transform="translate(9395.785 -8943.084)" opacity="0.5"><g clip-path="url(#bc)"><path d="M270.288,188.163H226.029a6.388,6.388,0,0,1-6.371-6.371V142.785a6.387,6.387,0,0,1,6.371-6.369h44.259a6.388,6.388,0,0,1,6.371,6.369v39.007a6.388,6.388,0,0,1-6.371,6.371" transform="translate(-219.658 -136.416)" fill="#e8e8e8" fill-rule="evenodd"/></g></g><path d="M266.776,140.193v-4.869a1.989,1.989,0,0,0-1.983-1.983H224.5a1.989,1.989,0,0,0-1.983,1.983v4.869Z" transform="translate(9179.64 -9322.494)" fill="#12263f" fill-rule="evenodd"/><path d="M266.776,140.193v-4.869a1.989,1.989,0,0,0-1.983-1.983H224.5a1.989,1.989,0,0,0-1.983,1.983v4.869Z" transform="translate(9179.64 -9083.277)" fill="#12263f" fill-rule="evenodd"/><rect width="43.548" height="17.466" transform="translate(9402.511 -9165.16)" fill="#12263f"/><rect width="43.548" height="17.466" transform="translate(9402.511 -8925.943)" fill="#12263f"/><path d="M254.684,118.4H236.94a3.05,3.05,0,0,1-3.042-3.042V99.116a3.05,3.05,0,0,1,3.042-3.042h17.744a3.05,3.05,0,0,1,3.042,3.042v16.242a3.05,3.05,0,0,1-3.042,3.042" transform="translate(9193.619 -9368.271)" fill="#12263f" fill-rule="evenodd"/><path d="M235.444,129.278h23.83l2.806-54.4H232.639Z" transform="translate(9192.072 -9394.304)" fill="#ffce79" fill-rule="evenodd"/><rect width="29.441" height="6.095" transform="translate(9424.712 -9325.517)" fill="#d1a207"/><rect width="0.584" height="4.564" transform="translate(9425.743 -9324.752)" fill="#fec60d"/><rect width="0.584" height="4.564" transform="translate(9427.318 -9324.752)" fill="#fec60d"/><rect width="0.584" height="4.564" transform="translate(9428.895 -9324.752)" fill="#fec60d"/><rect width="0.584" height="4.564" transform="translate(9430.472 -9324.752)" fill="#fec60d"/><rect width="0.584" height="4.564" transform="translate(9432.047 -9324.752)" fill="#fec60d"/><rect width="0.584" height="4.564" transform="translate(9433.623 -9324.752)" fill="#fec60d"/><rect width="0.584" height="4.564" transform="translate(9435.198 -9324.752)" fill="#fec60d"/><rect width="0.584" height="4.564" transform="translate(9436.775 -9324.752)" fill="#fec60d"/><rect width="0.584" height="4.564" transform="translate(9438.352 -9324.752)" fill="#fec60d"/><rect width="0.584" height="4.564" transform="translate(9439.927 -9324.752)" fill="#fec60d"/><rect width="0.584" height="4.564" transform="translate(9441.502 -9324.752)" fill="#fec60d"/><rect width="0.584" height="4.564" transform="translate(9443.08 -9324.752)" fill="#fec60d"/><rect width="0.584" height="4.564" transform="translate(9444.655 -9324.752)" fill="#fec60d"/><rect width="0.584" height="4.564" transform="translate(9446.23 -9324.752)" fill="#fec60d"/><rect width="0.584" height="4.564" transform="translate(9447.806 -9324.752)" fill="#fec60d"/><rect width="0.584" height="4.564" transform="translate(9449.382 -9324.752)" fill="#fec60d"/><rect width="0.584" height="4.564" transform="translate(9450.959 -9324.752)" fill="#fec60d"/><rect width="0.584" height="4.564" transform="translate(9452.534 -9324.752)" fill="#fec60d"/><rect width="22.283" height="3.842" transform="translate(9428.288 -9311.271)" fill="#333c4d"/><path d="M207.06,125.135H189.093c-5.684,0-5.132-3.833-5.132-3.833V92.342a1.9,1.9,0,0,1,2.005-1.751h23.716a1.9,1.9,0,0,1,2,1.751v28.714s.568,4.078-4.626,4.078" transform="translate(9132.262 -9375.006)" fill="#fec60d" fill-rule="evenodd"/><path d="M207.06,125.135H189.093c-5.684,0-5.132-3.833-5.132-3.833V92.342a1.9,1.9,0,0,1,2.005-1.751h23.716a1.9,1.9,0,0,1,2,1.751v28.714s.568,4.078-4.626,4.078" transform="translate(9132.262 -9135.789)" fill="#fec60d" fill-rule="evenodd"/><rect width="34.107" height="5.065" transform="translate(9313.366 -9287.31)" fill="#f27754"/><rect width="34.107" height="5.065" transform="translate(9313.366 -9048.093)" fill="#f27754"/><rect width="22.395" height="16.135" transform="translate(9318.888 -9276.754)" fill="#f27754"/><rect width="22.395" height="16.135" transform="translate(9318.888 -9037.537)" fill="#f27754"/><rect width="17.43" height="1.315" transform="translate(9321.372 -9269.587)" fill="#e6e6e6"/><rect width="17.43" height="1.315" transform="translate(9321.372 -9030.37)" fill="#e6e6e6"/><rect width="17.43" height="1.315" transform="translate(9321.372 -9274.033)" fill="#e6e6e6"/><rect width="17.43" height="1.315" transform="translate(9321.372 -9034.816)" fill="#e6e6e6"/><rect width="17.43" height="1.315" transform="translate(9321.372 -9265.436)" fill="#e6e6e6"/><rect width="17.43" height="1.315" transform="translate(9321.372 -9026.219)" fill="#e6e6e6"/><path d="M240.1,118.4H222.359a3.05,3.05,0,0,1-3.042-3.042V99.116a3.05,3.05,0,0,1,3.042-3.042H240.1a3.05,3.05,0,0,1,3.042,3.042v16.242A3.05,3.05,0,0,1,240.1,118.4" transform="translate(9175.709 -9368.271)" fill="#12263f" fill-rule="evenodd"/><path d="M220.863,129.278h23.83l2.805-54.4H218.058Z" transform="translate(9174.162 -9394.304)" fill="#ffce79" fill-rule="evenodd"/><rect width="29.441" height="6.095" transform="translate(9392.218 -9325.517)" fill="#d1a207"/><rect width="0.584" height="4.564" transform="translate(9393.252 -9324.752)" fill="#fec60d"/><rect width="0.584" height="4.564" transform="translate(9394.827 -9324.752)" fill="#fec60d"/><rect width="0.584" height="4.564" transform="translate(9396.402 -9324.752)" fill="#fec60d"/><rect width="0.584" height="4.564" transform="translate(9397.98 -9324.752)" fill="#fec60d"/><rect width="0.584" height="4.564" transform="translate(9399.556 -9324.752)" fill="#fec60d"/><rect width="0.584" height="4.564" transform="translate(9401.131 -9324.752)" fill="#fec60d"/><rect width="0.584" height="4.564" transform="translate(9402.707 -9324.752)" fill="#fec60d"/><rect width="0.584" height="4.564" transform="translate(9404.284 -9324.752)" fill="#fec60d"/><rect width="0.584" height="4.564" transform="translate(9405.859 -9324.752)" fill="#fec60d"/><rect width="0.584" height="4.564" transform="translate(9407.436 -9324.752)" fill="#fec60d"/><rect width="0.584" height="4.564" transform="translate(9409.011 -9324.752)" fill="#fec60d"/><rect width="0.584" height="4.564" transform="translate(9410.588 -9324.752)" fill="#fec60d"/><rect width="0.584" height="4.564" transform="translate(9412.164 -9324.752)" fill="#fec60d"/><rect width="0.584" height="4.564" transform="translate(9413.739 -9324.752)" fill="#fec60d"/><rect width="0.584" height="4.564" transform="translate(9415.314 -9324.752)" fill="#fec60d"/><rect width="0.584" height="4.564" transform="translate(9416.89 -9324.752)" fill="#fec60d"/><rect width="0.584" height="4.564" transform="translate(9418.466 -9324.752)" fill="#fec60d"/><rect width="0.584" height="4.564" transform="translate(9420.043 -9324.752)" fill="#fec60d"/><rect width="22.283" height="3.842" transform="translate(9395.797 -9311.271)" fill="#333c4d"/><path d="M225.522,118.4H207.778a3.05,3.05,0,0,1-3.042-3.042V99.116a3.05,3.05,0,0,1,3.042-3.042h17.744a3.05,3.05,0,0,1,3.042,3.042v16.242a3.05,3.05,0,0,1-3.042,3.042" transform="translate(9157.798 -9368.271)" fill="#12263f" fill-rule="evenodd"/><path d="M206.282,129.278h23.83l2.805-54.4H203.476Z" transform="translate(9156.251 -9394.304)" fill="#ffce79" fill-rule="evenodd"/><rect width="29.441" height="6.095" transform="translate(9359.727 -9325.517)" fill="#d1a207"/><rect width="0.584" height="4.564" transform="translate(9360.761 -9324.752)" fill="#fec60d"/><rect width="0.584" height="4.564" transform="translate(9362.336 -9324.752)" fill="#fec60d"/><rect width="0.584" height="4.564" transform="translate(9363.911 -9324.752)" fill="#fec60d"/><rect width="0.584" height="4.564" transform="translate(9365.486 -9324.752)" fill="#fec60d"/><rect width="0.584" height="4.564" transform="translate(9367.064 -9324.752)" fill="#fec60d"/><rect width="0.584" height="4.564" transform="translate(9368.64 -9324.752)" fill="#fec60d"/><rect width="0.584" height="4.564" transform="translate(9370.215 -9324.752)" fill="#fec60d"/><rect width="0.584" height="4.564" transform="translate(9371.791 -9324.752)" fill="#fec60d"/><rect width="0.584" height="4.564" transform="translate(9373.368 -9324.752)" fill="#fec60d"/><rect width="0.584" height="4.564" transform="translate(9374.943 -9324.752)" fill="#fec60d"/><rect width="0.584" height="4.564" transform="translate(9376.52 -9324.752)" fill="#fec60d"/><rect width="0.584" height="4.564" transform="translate(9378.095 -9324.752)" fill="#fec60d"/><rect width="0.584" height="4.564" transform="translate(9379.672 -9324.752)" fill="#fec60d"/><rect width="0.584" height="4.564" transform="translate(9381.248 -9324.752)" fill="#fec60d"/><rect width="0.584" height="4.564" transform="translate(9382.823 -9324.752)" fill="#fec60d"/><rect width="0.584" height="4.564" transform="translate(9384.398 -9324.752)" fill="#fec60d"/><rect width="0.584" height="4.564" transform="translate(9385.975 -9324.752)" fill="#fec60d"/><rect width="0.584" height="4.564" transform="translate(9387.552 -9324.752)" fill="#fec60d"/><rect width="22.283" height="3.842" transform="translate(9363.306 -9311.271)" fill="#333c4d"/><path d="M189.558,125.135H171.591c-5.682,0-5.13-3.833-5.13-3.833V92.342a1.894,1.894,0,0,1,2-1.751h23.716a1.894,1.894,0,0,1,2,1.751v28.714s.568,4.078-4.626,4.078" transform="translate(9110.766 -9375.006)" fill="#5d9037" fill-rule="evenodd"/><path d="M189.558,125.135H171.591c-5.682,0-5.13-3.833-5.13-3.833V92.342a1.894,1.894,0,0,1,2-1.751h23.716a1.894,1.894,0,0,1,2,1.751v28.714s.568,4.078-4.626,4.078" transform="translate(9110.766 -9135.789)" fill="#5d9037" fill-rule="evenodd"/><rect width="34.109" height="5.065" transform="translate(9274.365 -9287.31)" fill="#12263f"/><rect width="34.109" height="5.065" transform="translate(9274.365 -9048.093)" fill="#12263f"/><rect width="22.397" height="16.135" transform="translate(9279.892 -9276.754)" fill="#12263f"/><rect width="22.397" height="16.135" transform="translate(9279.892 -9037.537)" fill="#12263f"/><rect width="17.43" height="1.315" transform="translate(9282.374 -9269.587)" fill="#e6e6e6"/><rect width="17.43" height="1.315" transform="translate(9282.374 -9030.37)" fill="#e6e6e6"/><rect width="17.43" height="1.315" transform="translate(9282.374 -9274.033)" fill="#e6e6e6"/><rect width="17.43" height="1.315" transform="translate(9282.374 -9034.816)" fill="#e6e6e6"/><rect width="17.43" height="1.315" transform="translate(9282.374 -9265.436)" fill="#e6e6e6"/><rect width="17.43" height="1.315" transform="translate(9282.374 -9026.219)" fill="#e6e6e6"/><path d="M172.057,125.135H154.09c-5.684,0-5.13-3.833-5.13-3.833V92.342a1.894,1.894,0,0,1,2-1.751H174.68a1.894,1.894,0,0,1,2,1.751v28.714s.568,4.078-4.626,4.078" transform="translate(9089.269 -9375.006)" fill="#fec60d" fill-rule="evenodd"/><path d="M172.057,125.135H154.09c-5.684,0-5.13-3.833-5.13-3.833V92.342a1.894,1.894,0,0,1,2-1.751H174.68a1.894,1.894,0,0,1,2,1.751v28.714s.568,4.078-4.626,4.078" transform="translate(9089.269 -9135.789)" fill="#393676" fill-rule="evenodd"/><rect width="34.109" height="5.065" transform="translate(9235.369 -9287.31)" fill="#f27754"/><rect width="34.109" height="5.065" transform="translate(9235.369 -9048.093)" fill="#7f7aff"/><rect width="22.397" height="16.135" transform="translate(9240.894 -9276.754)" fill="#f27754"/><rect width="22.397" height="16.135" transform="translate(9240.894 -9037.537)" fill="#7f7aff"/><rect width="17.43" height="1.315" transform="translate(9243.378 -9269.587)" fill="#f6f6f6"/><rect width="17.43" height="1.315" transform="translate(9243.378 -9030.37)" fill="#f6f6f6"/><rect width="17.43" height="1.315" transform="translate(9243.378 -9274.033)" fill="#f6f6f6"/><rect width="17.43" height="1.315" transform="translate(9243.378 -9034.816)" fill="#f6f6f6"/><rect width="17.43" height="1.315" transform="translate(9243.378 -9265.436)" fill="#f6f6f6"/><rect width="17.43" height="1.315" transform="translate(9243.378 -9026.219)" fill="#f6f6f6"/><path d="M207.06,108.333H189.093c-5.684,0-5.132-3.833-5.132-3.833V75.54a1.9,1.9,0,0,1,2.005-1.751h23.716a1.9,1.9,0,0,1,2,1.751v28.714s.568,4.078-4.626,4.078" transform="translate(9132.262 -9395.645)" fill="#fec60d" fill-rule="evenodd"/><path d="M207.06,108.333H189.093c-5.684,0-5.132-3.833-5.132-3.833V75.54a1.9,1.9,0,0,1,2.005-1.751h23.716a1.9,1.9,0,0,1,2,1.751v28.714s.568,4.078-4.626,4.078" transform="translate(9132.262 -9156.428)" fill="#fec60d" fill-rule="evenodd"/><rect width="34.107" height="5.065" transform="translate(9313.366 -9324.75)" fill="#f27754"/><rect width="34.107" height="5.065" transform="translate(9313.366 -9085.533)" fill="#f27754"/><rect width="22.395" height="16.135" transform="translate(9318.888 -9314.194)" fill="#f27754"/><rect width="22.395" height="16.135" transform="translate(9318.888 -9074.978)" fill="#f27754"/><rect width="17.43" height="1.315" transform="translate(9321.372 -9307.025)" fill="#e6e6e6"/><rect width="17.43" height="1.315" transform="translate(9321.372 -9067.809)" fill="#e6e6e6"/><rect width="17.43" height="1.315" transform="translate(9321.372 -9311.474)" fill="#e6e6e6"/><rect width="17.43" height="1.315" transform="translate(9321.372 -9072.257)" fill="#e6e6e6"/><rect width="17.43" height="1.315" transform="translate(9321.372 -9302.876)" fill="#e6e6e6"/><rect width="17.43" height="1.315" transform="translate(9321.372 -9063.659)" fill="#e6e6e6"/><path d="M189.558,108.333H171.591c-5.682,0-5.13-3.833-5.13-3.833V75.54a1.894,1.894,0,0,1,2-1.751h23.716a1.894,1.894,0,0,1,2,1.751v28.714s.568,4.078-4.626,4.078" transform="translate(9110.766 -9395.645)" fill="#5d9037" fill-rule="evenodd"/><path d="M189.558,108.333H171.591c-5.682,0-5.13-3.833-5.13-3.833V75.54a1.894,1.894,0,0,1,2-1.751h23.716a1.894,1.894,0,0,1,2,1.751v28.714s.568,4.078-4.626,4.078" transform="translate(9110.766 -9156.428)" fill="#5d9037" fill-rule="evenodd"/><rect width="34.109" height="5.065" transform="translate(9274.365 -9324.75)" fill="#12263f"/><rect width="34.109" height="5.065" transform="translate(9274.365 -9085.533)" fill="#12263f"/><rect width="22.397" height="16.135" transform="translate(9279.892 -9314.194)" fill="#12263f"/><rect width="22.397" height="16.135" transform="translate(9279.892 -9074.978)" fill="#12263f"/><rect width="17.43" height="1.315" transform="translate(9282.374 -9307.025)" fill="#e6e6e6"/><rect width="17.43" height="1.315" transform="translate(9282.374 -9067.809)" fill="#e6e6e6"/><rect width="17.43" height="1.315" transform="translate(9282.374 -9311.474)" fill="#e6e6e6"/><rect width="17.43" height="1.315" transform="translate(9282.374 -9072.257)" fill="#e6e6e6"/><rect width="17.43" height="1.315" transform="translate(9282.374 -9302.876)" fill="#e6e6e6"/><rect width="17.43" height="1.315" transform="translate(9282.374 -9063.659)" fill="#e6e6e6"/><path d="M172.057,108.333H154.09c-5.684,0-5.13-3.833-5.13-3.833V75.54a1.894,1.894,0,0,1,2-1.751H174.68a1.894,1.894,0,0,1,2,1.751v28.714s.568,4.078-4.626,4.078" transform="translate(9089.269 -9395.645)" fill="#fec60d" fill-rule="evenodd"/><path d="M172.057,108.333H154.09c-5.684,0-5.13-3.833-5.13-3.833V75.54a1.894,1.894,0,0,1,2-1.751H174.68a1.894,1.894,0,0,1,2,1.751v28.714s.568,4.078-4.626,4.078" transform="translate(9089.269 -9156.428)" fill="#393676" fill-rule="evenodd"/><rect width="34.109" height="5.065" transform="translate(9235.369 -9324.75)" fill="#f27754"/><rect width="34.109" height="5.065" transform="translate(9235.369 -9085.533)" fill="#7f7aff"/><rect width="22.397" height="16.135" transform="translate(9240.894 -9314.194)" fill="#f27754"/><rect width="22.397" height="16.135" transform="translate(9240.894 -9074.978)" fill="#7f7aff"/><rect width="17.43" height="1.315" transform="translate(9243.378 -9307.025)" fill="#f6f6f6"/><rect width="17.43" height="1.315" transform="translate(9243.378 -9067.809)" fill="#f6f6f6"/><rect width="17.43" height="1.315" transform="translate(9243.378 -9311.474)" fill="#f6f6f6"/><rect width="17.43" height="1.315" transform="translate(9243.378 -9072.257)" fill="#f6f6f6"/><rect width="17.43" height="1.315" transform="translate(9243.378 -9302.876)" fill="#f6f6f6"/><rect width="17.43" height="1.315" transform="translate(9243.378 -9063.659)" fill="#f6f6f6"/><g transform="translate(9107.934 -9371.18)" opacity="0.15"><g clip-path="url(#bg)"><rect width="47.116" height="1.992" transform="translate(-0.001)"/></g></g><rect width="11.721" height="2.179" transform="translate(9123.603 -9294.081)" fill="#333c4d"/><rect width="11.721" height="2.179" transform="translate(9098.041 -9294.081)" fill="#333c4d"/><rect width="11.721" height="2.179" transform="translate(9072.482 -9294.081)" fill="#333c4d"/><path d="M240.48,85.7h27.23a4.946,4.946,0,0,0,4.931-4.931V30.493a4.946,4.946,0,0,0-4.931-4.931H240.48a4.946,4.946,0,0,0-4.931,4.931V80.765A4.946,4.946,0,0,0,240.48,85.7" transform="translate(9195.647 -9454.884)" fill="#5d9037" fill-rule="evenodd"/><path d="M238.614,22.811h30.963a3.072,3.072,0,0,1,3.064,3.064v0a3.072,3.072,0,0,1-3.064,3.064H238.614a3.074,3.074,0,0,1-3.064-3.064v0a3.074,3.074,0,0,1,3.064-3.064" transform="translate(9195.648 -9458.263)" fill="#fff" fill-rule="evenodd"/><rect width="29.494" height="13.154" transform="translate(9434.995 -9415.178)" fill="#fec60d"/><rect width="29.494" height="3.757" transform="translate(9434.995 -9415.176)" fill="#fff"/><path d="M222.088,85.7h27.23a4.946,4.946,0,0,0,4.931-4.931V30.493a4.946,4.946,0,0,0-4.931-4.931h-27.23a4.946,4.946,0,0,0-4.931,4.931V80.765a4.946,4.946,0,0,0,4.931,4.931" transform="translate(9173.056 -9454.884)" fill="#5d9037" fill-rule="evenodd"/><path d="M220.221,22.811h30.963a3.074,3.074,0,0,1,3.066,3.064v0a3.074,3.074,0,0,1-3.066,3.064H220.221a3.074,3.074,0,0,1-3.064-3.064v0a3.074,3.074,0,0,1,3.064-3.064" transform="translate(9173.056 -9458.263)" fill="#fff" fill-rule="evenodd"/><rect width="29.494" height="13.154" transform="translate(9394.012 -9415.178)" fill="#fec60d"/><rect width="29.494" height="3.757" transform="translate(9394.012 -9415.176)" fill="#fff"/><path d="M203.7,85.7h27.23a4.946,4.946,0,0,0,4.931-4.931V30.493a4.946,4.946,0,0,0-4.931-4.931H203.7a4.946,4.946,0,0,0-4.931,4.931V80.765A4.946,4.946,0,0,0,203.7,85.7" transform="translate(9150.463 -9454.884)" fill="#5d9037" fill-rule="evenodd"/><path d="M201.829,22.811h30.963a3.072,3.072,0,0,1,3.064,3.064v0a3.072,3.072,0,0,1-3.064,3.064H201.829a3.074,3.074,0,0,1-3.064-3.064v0a3.074,3.074,0,0,1,3.064-3.064" transform="translate(9150.464 -9458.263)" fill="#fff" fill-rule="evenodd"/><rect width="29.494" height="13.154" transform="translate(9353.025 -9415.178)" fill="#fec60d"/><rect width="29.494" height="3.757" transform="translate(9353.025 -9415.176)" fill="#fff"/><rect width="27.558" height="20.463" transform="translate(8922.185 -9389.65)" fill="#ffce79"/><rect width="0.773" height="20.922" transform="translate(8923.9 -9389.65)" fill="#fff"/><rect width="0.773" height="20.922" transform="translate(8925.877 -9389.65)" fill="#fff"/><rect width="0.773" height="20.922" transform="translate(8927.854 -9389.65)" fill="#fff"/><rect width="27.558" height="20.461" transform="translate(8922.185 -9410.111)" fill="#ffce79"/><rect width="0.773" height="20.922" transform="translate(8923.9 -9410.113)" fill="#fff"/><rect width="0.773" height="20.922" transform="translate(8925.877 -9410.113)" fill="#fff"/><rect width="0.773" height="20.922" transform="translate(8927.854 -9410.113)" fill="#fff"/><g transform="translate(8922.186 -9391.64)" opacity="0.15"><g clip-path="url(#bh)"><rect width="27.558" height="1.992" transform="translate(-0.001 -0.002)"/></g></g><rect width="27.558" height="20.463" transform="translate(8922.185 -9430.573)" fill="#ffce79"/><rect width="0.773" height="20.922" transform="translate(8923.9 -9430.573)" fill="#fff"/><rect width="0.773" height="20.922" transform="translate(8925.877 -9430.573)" fill="#fff"/><rect width="0.773" height="20.922" transform="translate(8927.854 -9430.573)" fill="#fff"/><g transform="translate(8922.186 -9412.103)" opacity="0.15"><g clip-path="url(#az)"><rect width="27.558" height="1.992" transform="translate(-0.001)"/></g></g><rect width="27.556" height="20.463" transform="translate(8951.775 -9389.65)" fill="#cccaff"/><rect width="0.773" height="20.922" transform="translate(8953.488 -9389.65)" fill="#fff"/><rect width="0.773" height="20.922" transform="translate(8955.465 -9389.65)" fill="#fff"/><rect width="0.773" height="20.922" transform="translate(8957.444 -9389.65)" fill="#fff"/><rect width="27.556" height="20.461" transform="translate(8951.775 -9410.111)" fill="#cccaff"/><rect width="0.773" height="20.922" transform="translate(8953.488 -9410.113)" fill="#fff"/><rect width="0.773" height="20.922" transform="translate(8955.465 -9410.113)" fill="#fff"/><rect width="0.773" height="20.922" transform="translate(8957.444 -9410.113)" fill="#fff"/><g transform="translate(8951.774 -9391.64)" opacity="0.15"><g clip-path="url(#bh)"><rect width="27.556" height="1.992" transform="translate(0.001 -0.002)"/></g></g><rect width="27.556" height="20.463" transform="translate(8951.775 -9430.573)" fill="#cccaff"/><rect width="0.773" height="20.922" transform="translate(8953.488 -9430.573)" fill="#fff"/><rect width="0.773" height="20.922" transform="translate(8955.465 -9430.573)" fill="#fff"/><rect width="0.773" height="20.922" transform="translate(8957.444 -9430.573)" fill="#fff"/><g transform="translate(8951.774 -9412.103)" opacity="0.15"><g clip-path="url(#az)"><rect width="27.556" height="1.992" transform="translate(0.001)"/></g></g><rect width="27.558" height="20.463" transform="translate(8981.363 -9389.65)" fill="#5d9037"/><rect width="0.773" height="20.922" transform="translate(8983.076 -9389.65)" fill="#fff"/><rect width="0.773" height="20.922" transform="translate(8985.053 -9389.65)" fill="#fff"/><rect width="0.773" height="20.922" transform="translate(8987.032 -9389.65)" fill="#fff"/><rect width="27.558" height="20.461" transform="translate(8981.363 -9410.111)" fill="#5d9037"/><rect width="0.773" height="20.922" transform="translate(8983.076 -9410.113)" fill="#fff"/><rect width="0.773" height="20.922" transform="translate(8985.053 -9410.113)" fill="#fff"/><rect width="0.773" height="20.922" transform="translate(8987.032 -9410.113)" fill="#fff"/><g transform="translate(8981.362 -9391.64)" opacity="0.15"><g clip-path="url(#bh)"><rect width="27.558" height="1.992" transform="translate(0.001 -0.002)"/></g></g><rect width="27.558" height="20.463" transform="translate(8981.363 -9430.573)" fill="#5d9037"/><rect width="0.773" height="20.922" transform="translate(8983.076 -9430.573)" fill="#fff"/><rect width="0.773" height="20.922" transform="translate(8985.053 -9430.573)" fill="#fff"/><rect width="0.773" height="20.922" transform="translate(8987.032 -9430.573)" fill="#fff"/><g transform="translate(8981.362 -9412.103)" opacity="0.15"><g clip-path="url(#az)"><rect width="27.558" height="1.992" transform="translate(0.001)"/></g></g><rect width="5.649" height="19.712" transform="translate(9033.252 -9436.153)" fill="#fff"/><rect width="9.698" height="13.368" transform="translate(9031.227 -9429.81)" fill="#fff"/><path d="M56.213,82.57H72.738A3.07,3.07,0,0,0,75.8,79.508V31.167a3.068,3.068,0,0,0-3.062-3.06H56.213a3.068,3.068,0,0,0-3.062,3.06V79.508a3.07,3.07,0,0,0,3.062,3.062" transform="translate(8971.6 -9451.757)" fill="#7f7aff" fill-rule="evenodd"/><rect width="5.649" height="19.712" transform="translate(9058.368 -9436.153)" fill="#fff"/><rect width="9.698" height="13.368" transform="translate(9056.342 -9429.81)" fill="#fff"/><path d="M67.484,82.57H84.009a3.07,3.07,0,0,0,3.062-3.062V31.167a3.068,3.068,0,0,0-3.062-3.06H67.484a3.068,3.068,0,0,0-3.062,3.06V79.508a3.07,3.07,0,0,0,3.062,3.062" transform="translate(8985.444 -9451.757)" fill="#7f7aff" fill-rule="evenodd"/><rect width="5.649" height="19.712" transform="translate(9083.483 -9436.153)" fill="#fff"/><rect width="9.698" height="13.368" transform="translate(9081.46 -9429.81)" fill="#fff"/><path d="M78.756,82.57H95.281a3.07,3.07,0,0,0,3.062-3.062V31.167a3.068,3.068,0,0,0-3.062-3.06H78.756a3.068,3.068,0,0,0-3.062,3.06V79.508a3.07,3.07,0,0,0,3.062,3.062" transform="translate(8999.291 -9451.757)" fill="#7f7aff" fill-rule="evenodd"/><rect width="47.116" height="21.307" transform="translate(9107.933 -9390.495)" fill="#283f65"/><path d="M119.569,42.986a14.843,14.843,0,0,1,0,21.307H98.9a14.838,14.838,0,0,1,0-21.307Z" transform="translate(9022.257 -9433.48)" fill="#fff" fill-rule="evenodd"/><rect width="21.537" height="4.004" transform="translate(9120.724 -9381.842)" fill="#333c4d"/><rect width="47.116" height="21.307" transform="translate(9107.933 -9411.8)" fill="#283f65"/><path d="M119.569,33.425a14.84,14.84,0,0,1,0,21.305H98.9a14.835,14.835,0,0,1,0-21.305Z" transform="translate(9022.257 -9445.225)" fill="#fff" fill-rule="evenodd"/><g transform="translate(9107.934 -9392.484)" opacity="0.15"><g clip-path="url(#bn)"><rect width="47.116" height="1.992" transform="translate(-0.001 -0.002)"/></g></g><rect width="21.537" height="4.004" transform="translate(9120.724 -9403.149)" fill="#333c4d"/><rect width="47.116" height="21.307" transform="translate(9107.933 -9433.107)" fill="#283f65"/><path d="M119.569,23.863a14.843,14.843,0,0,1,0,21.307H98.9a14.838,14.838,0,0,1,0-21.307Z" transform="translate(9022.257 -9456.971)" fill="#fff" fill-rule="evenodd"/><g transform="translate(9107.934 -9413.792)" opacity="0.15"><g clip-path="url(#bg)"><rect width="47.116" height="1.992" transform="translate(-0.001)"/></g></g><rect width="21.537" height="4.004" transform="translate(9120.724 -9424.455)" fill="#333c4d"/><path d="M55.454,31.269H71.741a1.65,1.65,0,0,1,0,3.3H55.454a1.65,1.65,0,1,1,0-3.3" transform="translate(8972.401 -9447.873)" fill="#fff" fill-rule="evenodd"/><path d="M66.76,31.269H83.047a1.65,1.65,0,0,1,0,3.3H66.76a1.65,1.65,0,1,1,0-3.3" transform="translate(8986.288 -9447.873)" fill="#fff" fill-rule="evenodd"/><path d="M78.067,31.269H94.352a1.65,1.65,0,1,1,0,3.3H78.067a1.65,1.65,0,1,1,0-3.3" transform="translate(9000.178 -9447.873)" fill="#fff" fill-rule="evenodd"/><rect width="112.656" height="33.133" transform="translate(9222.529 -9402.32)" fill="#fff"/><rect width="112.656" height="11.077" transform="translate(9222.529 -9402.32)" fill="#4a732c"/><g transform="translate(9222.529 -9371.355)" opacity="0.15"><g clip-path="url(#bp)"><rect width="112.656" height="2.168"/></g></g><rect width="48.13" height="4.804" transform="translate(9254.792 -9387.759)" fill="#333c4d"/><rect width="112.656" height="33.133" transform="translate(9222.529 -9435.451)" fill="#fff"/><rect width="112.656" height="11.077" transform="translate(9222.529 -9435.451)" fill="#4a732c"/><g transform="translate(9222.529 -9404.488)" opacity="0.15"><g clip-path="url(#bp)"><rect width="112.656" height="2.168" transform="translate(0 0)"/></g></g><rect width="48.13" height="4.804" transform="translate(9254.792 -9420.89)" fill="#333c4d"/><g transform="translate(8382.5 -11659.015)"><path d="M7708.172-9403.146h-2v-24.413h2Z" transform="translate(-7200.172 11621)" fill="#0f1f33"/><path d="M1,22.875H-1V0H1Z" transform="translate(507 2287.697) rotate(180)" fill="#0f1f33"/><path d="M1,5.224H-1V0H1Z" transform="translate(509.611 2193.442) rotate(90)" fill="#0f1f33"/><path d="M1,5.224H-1V0H1Z" transform="translate(504.389 2287.697) rotate(-90)" fill="#0f1f33"/></g><path d="M7708.172-9403.146h-2v-24.413h2Z" transform="translate(1182.328 96.603)" fill="#0f1f33"/><path d="M7708.172-9403.146h-2v-24.413h2Z" transform="translate(1182.328 335.819)" fill="#0f1f33"/><path d="M1,22.875H-1V0H1Z" transform="translate(8889.5 -9254.318) rotate(180)" fill="#0f1f33"/><path d="M1,22.875H-1V0H1Z" transform="translate(8889.5 -9015.102) rotate(180)" fill="#0f1f33"/><path d="M1,5.224H-1V0H1Z" transform="translate(8892.111 -9330.955) rotate(90)" fill="#0f1f33"/><path d="M1,5.224H-1V0H1Z" transform="translate(8892.111 -9091.738) rotate(90)" fill="#0f1f33"/><path d="M1,5.224H-1V0H1Z" transform="translate(8886.889 -9254.317) rotate(-90)" fill="#0f1f33"/><path d="M1,5.224H-1V0H1Z" transform="translate(8886.889 -9015.101) rotate(-90)" fill="#0f1f33"/><path d="M7708.172-9403.146h-2v-24.413h2Z" transform="translate(1182.328 216.603)" fill="#0f1f33"/><path d="M7708.172-9403.146h-2v-24.413h2Z" transform="translate(1182.328 455.819)" fill="#0f1f33"/><path d="M1,22.875H-1V0H1Z" transform="translate(8889.5 -9134.318) rotate(180)" fill="#0f1f33"/><path d="M1,22.875H-1V0H1Z" transform="translate(8889.5 -8895.102) rotate(180)" fill="#0f1f33"/><path d="M1,5.224H-1V0H1Z" transform="translate(8892.111 -9210.955) rotate(90)" fill="#0f1f33"/><path d="M1,5.224H-1V0H1Z" transform="translate(8892.111 -8971.738) rotate(90)" fill="#0f1f33"/><path d="M1,5.224H-1V0H1Z" transform="translate(8886.889 -9134.317) rotate(-90)" fill="#0f1f33"/><path d="M1,5.224H-1V0H1Z" transform="translate(8886.889 -8895.101) rotate(-90)" fill="#0f1f33"/><text transform="translate(8869 -9413.999)" fill="#12263f" font-size="16" font-family="Roboto-Bold, Roboto" font-weight="700"><tspan x="0" y="0">60 cm</tspan></text><text transform="translate(8868 -9285.999)" fill="#12263f" font-size="16" font-family="Roboto-Bold, Roboto" font-weight="700"><tspan x="0" y="0">30 cm</tspan></text><text transform="translate(8868 -9046.782)" fill="#12263f" font-size="16" font-family="Roboto-Bold, Roboto" font-weight="700"><tspan x="0" y="0">30 cm</tspan></text><text transform="translate(8868 -9165.999)" fill="#12263f" font-size="16" font-family="Roboto-Bold, Roboto" font-weight="700"><tspan x="0" y="0">30 cm</tspan></text><text transform="translate(8868 -8926.782)" fill="#12263f" font-size="16" font-family="Roboto-Bold, Roboto" font-weight="700"><tspan x="0" y="0">30 cm</tspan></text><g transform="translate(-18.889 -83.271)"><rect width="265.066" height="21.203" transform="translate(8925.201 -8688.338)" fill="#0f1f33"/><g transform="translate(8925.201 -8667.135)" opacity="0.15"><g clip-path="url(#f)"><rect width="265.066" height="15.547" transform="translate(0 0)"/></g></g><rect width="265.066" height="21.203" transform="translate(9228.995 -8688.338)" fill="#0f1f33"/><g transform="translate(9228.995 -8667.135)" opacity="0.15"><g clip-path="url(#f)"><rect width="265.066" height="15.547" transform="translate(0 0)"/></g></g><rect width="265.066" height="5.435" transform="translate(8925.201 -8688.338)" fill="#dee4f0"/><rect width="265.066" height="5.435" transform="translate(9228.995 -8688.338)" fill="#dee4f0"/><path d="M7708.172-9403.146h-2v-24.413h2Z" transform="translate(1201.216 658.819)" fill="#0f1f33"/><path d="M1,22.875H-1V0H1Z" transform="translate(8908.389 -8692.102) rotate(180)" fill="#0f1f33"/><path d="M1,5.224H-1V0H1Z" transform="translate(8911 -8768.738) rotate(90)" fill="#0f1f33"/><path d="M1,5.224H-1V0H1Z" transform="translate(8905.777 -8692.101) rotate(-90)" fill="#0f1f33"/><text transform="translate(8886.889 -8723.782)" fill="#12263f" font-size="16" font-family="Roboto-Bold, Roboto" font-weight="700"><tspan x="0" y="0">30 cm</tspan></text><g transform="translate(322.91 681.415)"><rect width="27.558" height="20.463" transform="translate(8922.185 -9389.65)" fill="#ffce79"/><rect width="0.773" height="20.922" transform="translate(8923.9 -9389.65)" fill="#fff"/><rect width="0.773" height="20.922" transform="translate(8925.877 -9389.65)" fill="#fff"/><rect width="0.773" height="20.922" transform="translate(8927.854 -9389.65)" fill="#fff"/><rect width="27.558" height="20.461" transform="translate(8922.185 -9410.111)" fill="#ffce79"/><rect width="0.773" height="20.922" transform="translate(8923.9 -9410.113)" fill="#fff"/><rect width="0.773" height="20.922" transform="translate(8925.877 -9410.113)" fill="#fff"/><rect width="0.773" height="20.922" transform="translate(8927.854 -9410.113)" fill="#fff"/><g transform="translate(8922.186 -9391.64)" opacity="0.15"><g clip-path="url(#bh)"><rect width="27.558" height="1.992" transform="translate(-0.001 -0.002)"/></g></g><rect width="27.558" height="20.463" transform="translate(8922.185 -9430.573)" fill="#ffce79"/><rect width="0.773" height="20.922" transform="translate(8923.9 -9430.573)" fill="#fff"/><rect width="0.773" height="20.922" transform="translate(8925.877 -9430.573)" fill="#fff"/><rect width="0.773" height="20.922" transform="translate(8927.854 -9430.573)" fill="#fff"/><g transform="translate(8922.186 -9412.103)" opacity="0.15"><g clip-path="url(#az)"><rect width="27.558" height="1.992" transform="translate(-0.001)"/></g></g><rect width="27.556" height="20.463" transform="translate(8951.775 -9389.65)" fill="#cccaff"/><rect width="0.773" height="20.922" transform="translate(8953.488 -9389.65)" fill="#fff"/><rect width="0.773" height="20.922" transform="translate(8955.465 -9389.65)" fill="#fff"/><rect width="0.773" height="20.922" transform="translate(8957.444 -9389.65)" fill="#fff"/><rect width="27.556" height="20.461" transform="translate(8951.775 -9410.111)" fill="#cccaff"/><rect width="0.773" height="20.922" transform="translate(8953.488 -9410.113)" fill="#fff"/><rect width="0.773" height="20.922" transform="translate(8955.465 -9410.113)" fill="#fff"/><rect width="0.773" height="20.922" transform="translate(8957.444 -9410.113)" fill="#fff"/><g transform="translate(8951.774 -9391.64)" opacity="0.15"><g clip-path="url(#bh)"><rect width="27.556" height="1.992" transform="translate(0.001 -0.002)"/></g></g><rect width="27.556" height="20.463" transform="translate(8951.775 -9430.573)" fill="#cccaff"/><rect width="0.773" height="20.922" transform="translate(8953.488 -9430.573)" fill="#fff"/><rect width="0.773" height="20.922" transform="translate(8955.465 -9430.573)" fill="#fff"/><rect width="0.773" height="20.922" transform="translate(8957.444 -9430.573)" fill="#fff"/><g transform="translate(8951.774 -9412.103)" opacity="0.15"><g clip-path="url(#az)"><rect width="27.556" height="1.992" transform="translate(0.001)"/></g></g><rect width="27.558" height="20.463" transform="translate(8981.363 -9389.65)" fill="#5d9037"/><rect width="0.773" height="20.922" transform="translate(8983.076 -9389.65)" fill="#fff"/><rect width="0.773" height="20.922" transform="translate(8985.053 -9389.65)" fill="#fff"/><rect width="0.773" height="20.922" transform="translate(8987.032 -9389.65)" fill="#fff"/><rect width="27.558" height="20.461" transform="translate(8981.363 -9410.111)" fill="#5d9037"/><rect width="0.773" height="20.922" transform="translate(8983.076 -9410.113)" fill="#fff"/><rect width="0.773" height="20.922" transform="translate(8985.053 -9410.113)" fill="#fff"/><rect width="0.773" height="20.922" transform="translate(8987.032 -9410.113)" fill="#fff"/><g transform="translate(8981.362 -9391.64)" opacity="0.15"><g clip-path="url(#bh)"><rect width="27.558" height="1.992" transform="translate(0.001 -0.002)"/></g></g><rect width="27.558" height="20.463" transform="translate(8981.363 -9430.573)" fill="#5d9037"/><rect width="0.773" height="20.922" transform="translate(8983.076 -9430.573)" fill="#fff"/><rect width="0.773" height="20.922" transform="translate(8985.053 -9430.573)" fill="#fff"/><rect width="0.773" height="20.922" transform="translate(8987.032 -9430.573)" fill="#fff"/><g transform="translate(8981.362 -9412.103)" opacity="0.15"><g clip-path="url(#az)"><rect width="27.558" height="1.992" transform="translate(0.001)"/></g></g><rect width="5.649" height="19.712" transform="translate(9033.252 -9436.153)" fill="#fff"/><rect width="9.698" height="13.368" transform="translate(9031.227 -9429.81)" fill="#fff"/><path d="M56.213,82.57H72.738A3.07,3.07,0,0,0,75.8,79.508V31.167a3.068,3.068,0,0,0-3.062-3.06H56.213a3.068,3.068,0,0,0-3.062,3.06V79.508a3.07,3.07,0,0,0,3.062,3.062" transform="translate(8971.6 -9451.757)" fill="#7f7aff" fill-rule="evenodd"/><rect width="5.649" height="19.712" transform="translate(9058.368 -9436.153)" fill="#fff"/><rect width="9.698" height="13.368" transform="translate(9056.342 -9429.81)" fill="#fff"/><path d="M67.484,82.57H84.009a3.07,3.07,0,0,0,3.062-3.062V31.167a3.068,3.068,0,0,0-3.062-3.06H67.484a3.068,3.068,0,0,0-3.062,3.06V79.508a3.07,3.07,0,0,0,3.062,3.062" transform="translate(8985.444 -9451.757)" fill="#7f7aff" fill-rule="evenodd"/><rect width="5.649" height="19.712" transform="translate(9083.483 -9436.153)" fill="#fff"/><rect width="9.698" height="13.368" transform="translate(9081.46 -9429.81)" fill="#fff"/><path d="M78.756,82.57H95.281a3.07,3.07,0,0,0,3.062-3.062V31.167a3.068,3.068,0,0,0-3.062-3.06H78.756a3.068,3.068,0,0,0-3.062,3.06V79.508a3.07,3.07,0,0,0,3.062,3.062" transform="translate(8999.291 -9451.757)" fill="#7f7aff" fill-rule="evenodd"/><rect width="47.116" height="21.307" transform="translate(9107.933 -9390.495)" fill="#283f65"/><path d="M119.569,42.986a14.843,14.843,0,0,1,0,21.307H98.9a14.838,14.838,0,0,1,0-21.307Z" transform="translate(9022.257 -9433.48)" fill="#fff" fill-rule="evenodd"/><rect width="21.537" height="4.004" transform="translate(9120.724 -9381.842)" fill="#333c4d"/><rect width="47.116" height="21.307" transform="translate(9107.933 -9411.8)" fill="#283f65"/><path d="M119.569,33.425a14.84,14.84,0,0,1,0,21.305H98.9a14.835,14.835,0,0,1,0-21.305Z" transform="translate(9022.257 -9445.225)" fill="#fff" fill-rule="evenodd"/><g transform="translate(9107.934 -9392.484)" opacity="0.15"><g clip-path="url(#bn)"><rect width="47.116" height="1.992" transform="translate(-0.001 -0.002)"/></g></g><rect width="21.537" height="4.004" transform="translate(9120.724 -9403.149)" fill="#333c4d"/><rect width="47.116" height="21.307" transform="translate(9107.933 -9433.107)" fill="#283f65"/><path d="M119.569,23.863a14.843,14.843,0,0,1,0,21.307H98.9a14.838,14.838,0,0,1,0-21.307Z" transform="translate(9022.257 -9456.971)" fill="#fff" fill-rule="evenodd"/><g transform="translate(9107.934 -9413.792)" opacity="0.15"><g clip-path="url(#bg)"><rect width="47.116" height="1.992" transform="translate(-0.001)"/></g></g><rect width="21.537" height="4.004" transform="translate(9120.724 -9424.455)" fill="#333c4d"/><path d="M55.454,31.269H71.741a1.65,1.65,0,0,1,0,3.3H55.454a1.65,1.65,0,1,1,0-3.3" transform="translate(8972.401 -9447.873)" fill="#fff" fill-rule="evenodd"/><path d="M66.76,31.269H83.047a1.65,1.65,0,0,1,0,3.3H66.76a1.65,1.65,0,1,1,0-3.3" transform="translate(8986.288 -9447.873)" fill="#fff" fill-rule="evenodd"/><path d="M78.067,31.269H94.352a1.65,1.65,0,1,1,0,3.3H78.067a1.65,1.65,0,1,1,0-3.3" transform="translate(9000.178 -9447.873)" fill="#fff" fill-rule="evenodd"/></g></g><g transform="translate(-119.562 235.915)"><rect width="23.736" height="55.86" transform="translate(9066.477 -9066.514)" fill="#cccaff"/><path d="M81.786,99.646a8.318,8.318,0,1,0-8.318-8.318,8.335,8.335,0,0,0,8.318,8.318" transform="translate(8996.557 -9145.102)" fill="#fff" fill-rule="evenodd"/><g transform="translate(9066.477 -9012.994)" opacity="0.15"><g clip-path="url(#aw)"><rect width="23.736" height="2.34" transform="translate(0 0)"/></g></g><rect width="16.637" height="5.968" transform="translate(9070.026 -9022.493)" fill="#fff"/><rect width="23.736" height="55.86" transform="translate(9092.036 -9066.514)" fill="#cccaff"/><path d="M93.256,99.646a8.318,8.318,0,1,0-8.318-8.318,8.335,8.335,0,0,0,8.318,8.318" transform="translate(9010.646 -9145.102)" fill="#fff" fill-rule="evenodd"/><g transform="translate(9092.035 -9012.994)" opacity="0.15"><g clip-path="url(#aw)"><rect width="23.736" height="2.34" transform="translate(0 0)"/></g></g><rect width="16.637" height="5.968" transform="translate(9095.586 -9022.493)" fill="#fff"/><rect width="23.734" height="55.86" transform="translate(9117.595 -9066.514)" fill="#cccaff"/><path d="M104.727,99.646a8.318,8.318,0,1,0-8.318-8.318,8.335,8.335,0,0,0,8.318,8.318" transform="translate(9024.735 -9145.102)" fill="#fff" fill-rule="evenodd"/><g transform="translate(9117.595 -9012.994)" opacity="0.15"><g clip-path="url(#ay)"><rect width="23.734" height="2.34" transform="translate(0 0)"/></g></g><rect width="16.637" height="5.968" transform="translate(9121.145 -9022.493)" fill="#fff"/><rect width="11.721" height="2.179" transform="translate(9123.603 -9054.864)" fill="#333c4d"/><rect width="11.721" height="2.179" transform="translate(9098.041 -9054.864)" fill="#333c4d"/><rect width="11.721" height="2.179" transform="translate(9072.482 -9054.864)" fill="#333c4d"/></g><g transform="translate(303.786 239.038)"><rect width="27.558" height="20.463" transform="translate(8922.185 -9389.65)" fill="#ffce79"/><rect width="0.773" height="20.922" transform="translate(8923.9 -9389.65)" fill="#fff"/><rect width="0.773" height="20.922" transform="translate(8925.877 -9389.65)" fill="#fff"/><rect width="0.773" height="20.922" transform="translate(8927.854 -9389.65)" fill="#fff"/><rect width="27.558" height="20.461" transform="translate(8922.185 -9410.111)" fill="#ffce79"/><rect width="0.773" height="20.922" transform="translate(8923.9 -9410.113)" fill="#fff"/><rect width="0.773" height="20.922" transform="translate(8925.877 -9410.113)" fill="#fff"/><rect width="0.773" height="20.922" transform="translate(8927.854 -9410.113)" fill="#fff"/><g transform="translate(8922.186 -9391.64)" opacity="0.15"><g clip-path="url(#bh)"><rect width="27.558" height="1.992" transform="translate(-0.001 -0.002)"/></g></g><rect width="27.558" height="20.463" transform="translate(8922.185 -9430.573)" fill="#ffce79"/><rect width="0.773" height="20.922" transform="translate(8923.9 -9430.573)" fill="#fff"/><rect width="0.773" height="20.922" transform="translate(8925.877 -9430.573)" fill="#fff"/><rect width="0.773" height="20.922" transform="translate(8927.854 -9430.573)" fill="#fff"/><g transform="translate(8922.186 -9412.103)" opacity="0.15"><g clip-path="url(#az)"><rect width="27.558" height="1.992" transform="translate(-0.001)"/></g></g><rect width="27.556" height="20.463" transform="translate(8951.775 -9389.65)" fill="#cccaff"/><rect width="0.773" height="20.922" transform="translate(8953.488 -9389.65)" fill="#fff"/><rect width="0.773" height="20.922" transform="translate(8955.465 -9389.65)" fill="#fff"/><rect width="0.773" height="20.922" transform="translate(8957.444 -9389.65)" fill="#fff"/><rect width="27.556" height="20.461" transform="translate(8951.775 -9410.111)" fill="#cccaff"/><rect width="0.773" height="20.922" transform="translate(8953.488 -9410.113)" fill="#fff"/><rect width="0.773" height="20.922" transform="translate(8955.465 -9410.113)" fill="#fff"/><rect width="0.773" height="20.922" transform="translate(8957.444 -9410.113)" fill="#fff"/><g transform="translate(8951.774 -9391.64)" opacity="0.15"><g clip-path="url(#bh)"><rect width="27.556" height="1.992" transform="translate(0.001 -0.002)"/></g></g><rect width="27.556" height="20.463" transform="translate(8951.775 -9430.573)" fill="#cccaff"/><rect width="0.773" height="20.922" transform="translate(8953.488 -9430.573)" fill="#fff"/><rect width="0.773" height="20.922" transform="translate(8955.465 -9430.573)" fill="#fff"/><rect width="0.773" height="20.922" transform="translate(8957.444 -9430.573)" fill="#fff"/><g transform="translate(8951.774 -9412.103)" opacity="0.15"><g clip-path="url(#az)"><rect width="27.556" height="1.992" transform="translate(0.001)"/></g></g><rect width="27.558" height="20.463" transform="translate(8981.363 -9389.65)" fill="#5d9037"/><rect width="0.773" height="20.922" transform="translate(8983.076 -9389.65)" fill="#fff"/><rect width="0.773" height="20.922" transform="translate(8985.053 -9389.65)" fill="#fff"/><rect width="0.773" height="20.922" transform="translate(8987.032 -9389.65)" fill="#fff"/><rect width="27.558" height="20.461" transform="translate(8981.363 -9410.111)" fill="#5d9037"/><rect width="0.773" height="20.922" transform="translate(8983.076 -9410.113)" fill="#fff"/><rect width="0.773" height="20.922" transform="translate(8985.053 -9410.113)" fill="#fff"/><rect width="0.773" height="20.922" transform="translate(8987.032 -9410.113)" fill="#fff"/><g transform="translate(8981.362 -9391.64)" opacity="0.15"><g clip-path="url(#bh)"><rect width="27.558" height="1.992" transform="translate(0.001 -0.002)"/></g></g><rect width="27.558" height="20.463" transform="translate(8981.363 -9430.573)" fill="#5d9037"/><rect width="0.773" height="20.922" transform="translate(8983.076 -9430.573)" fill="#fff"/><rect width="0.773" height="20.922" transform="translate(8985.053 -9430.573)" fill="#fff"/><rect width="0.773" height="20.922" transform="translate(8987.032 -9430.573)" fill="#fff"/><g transform="translate(8981.362 -9412.103)" opacity="0.15"><g clip-path="url(#az)"><rect width="27.558" height="1.992" transform="translate(0.001)"/></g></g></g><g transform="translate(-306.343 119.74)"><path d="M254.684,118.4H236.94a3.05,3.05,0,0,1-3.042-3.042V99.116a3.05,3.05,0,0,1,3.042-3.042h17.744a3.05,3.05,0,0,1,3.042,3.042v16.242a3.05,3.05,0,0,1-3.042,3.042" transform="translate(9193.619 -9129.054)" fill="#12263f" fill-rule="evenodd"/><path d="M235.444,129.278h23.83l2.806-54.4H232.639Z" transform="translate(9192.072 -9155.087)" fill="#ffce79" fill-rule="evenodd"/><rect width="29.441" height="6.095" transform="translate(9424.712 -9086.3)" fill="#d1a207"/><rect width="0.584" height="4.564" transform="translate(9425.743 -9085.535)" fill="#fec60d"/><rect width="0.584" height="4.564" transform="translate(9427.318 -9085.535)" fill="#fec60d"/><rect width="0.584" height="4.564" transform="translate(9428.895 -9085.535)" fill="#fec60d"/><rect width="0.584" height="4.564" transform="translate(9430.472 -9085.535)" fill="#fec60d"/><rect width="0.584" height="4.564" transform="translate(9432.047 -9085.535)" fill="#fec60d"/><rect width="0.584" height="4.564" transform="translate(9433.623 -9085.535)" fill="#fec60d"/><rect width="0.584" height="4.564" transform="translate(9435.198 -9085.535)" fill="#fec60d"/><rect width="0.584" height="4.564" transform="translate(9436.775 -9085.535)" fill="#fec60d"/><rect width="0.584" height="4.564" transform="translate(9438.352 -9085.535)" fill="#fec60d"/><rect width="0.584" height="4.564" transform="translate(9439.927 -9085.535)" fill="#fec60d"/><rect width="0.584" height="4.564" transform="translate(9441.502 -9085.535)" fill="#fec60d"/><rect width="0.584" height="4.564" transform="translate(9443.08 -9085.535)" fill="#fec60d"/><rect width="0.584" height="4.564" transform="translate(9444.655 -9085.535)" fill="#fec60d"/><rect width="0.584" height="4.564" transform="translate(9446.23 -9085.535)" fill="#fec60d"/><rect width="0.584" height="4.564" transform="translate(9447.806 -9085.535)" fill="#fec60d"/><rect width="0.584" height="4.564" transform="translate(9449.382 -9085.535)" fill="#fec60d"/><rect width="0.584" height="4.564" transform="translate(9450.959 -9085.535)" fill="#fec60d"/><rect width="0.584" height="4.564" transform="translate(9452.534 -9085.535)" fill="#fec60d"/><rect width="22.283" height="3.842" transform="translate(9428.288 -9072.054)" fill="#333c4d"/><path d="M240.1,118.4H222.359a3.05,3.05,0,0,1-3.042-3.042V99.116a3.05,3.05,0,0,1,3.042-3.042H240.1a3.05,3.05,0,0,1,3.042,3.042v16.242A3.05,3.05,0,0,1,240.1,118.4" transform="translate(9175.709 -9129.054)" fill="#12263f" fill-rule="evenodd"/><path d="M220.863,129.278h23.83l2.805-54.4H218.058Z" transform="translate(9174.162 -9155.087)" fill="#ffce79" fill-rule="evenodd"/><rect width="29.441" height="6.095" transform="translate(9392.218 -9086.3)" fill="#d1a207"/><rect width="0.584" height="4.564" transform="translate(9393.252 -9085.535)" fill="#fec60d"/><rect width="0.584" height="4.564" transform="translate(9394.827 -9085.535)" fill="#fec60d"/><rect width="0.584" height="4.564" transform="translate(9396.402 -9085.535)" fill="#fec60d"/><rect width="0.584" height="4.564" transform="translate(9397.98 -9085.535)" fill="#fec60d"/><rect width="0.584" height="4.564" transform="translate(9399.556 -9085.535)" fill="#fec60d"/><rect width="0.584" height="4.564" transform="translate(9401.131 -9085.535)" fill="#fec60d"/><rect width="0.584" height="4.564" transform="translate(9402.707 -9085.535)" fill="#fec60d"/><rect width="0.584" height="4.564" transform="translate(9404.284 -9085.535)" fill="#fec60d"/><rect width="0.584" height="4.564" transform="translate(9405.859 -9085.535)" fill="#fec60d"/><rect width="0.584" height="4.564" transform="translate(9407.436 -9085.535)" fill="#fec60d"/><rect width="0.584" height="4.564" transform="translate(9409.011 -9085.535)" fill="#fec60d"/><rect width="0.584" height="4.564" transform="translate(9410.588 -9085.535)" fill="#fec60d"/><rect width="0.584" height="4.564" transform="translate(9412.164 -9085.535)" fill="#fec60d"/><rect width="0.584" height="4.564" transform="translate(9413.739 -9085.535)" fill="#fec60d"/><rect width="0.584" height="4.564" transform="translate(9415.314 -9085.535)" fill="#fec60d"/><rect width="0.584" height="4.564" transform="translate(9416.89 -9085.535)" fill="#fec60d"/><rect width="0.584" height="4.564" transform="translate(9418.466 -9085.535)" fill="#fec60d"/><rect width="0.584" height="4.564" transform="translate(9420.043 -9085.535)" fill="#fec60d"/><rect width="22.283" height="3.842" transform="translate(9395.797 -9072.054)" fill="#333c4d"/><path d="M225.522,118.4H207.778a3.05,3.05,0,0,1-3.042-3.042V99.116a3.05,3.05,0,0,1,3.042-3.042h17.744a3.05,3.05,0,0,1,3.042,3.042v16.242a3.05,3.05,0,0,1-3.042,3.042" transform="translate(9157.798 -9129.054)" fill="#12263f" fill-rule="evenodd"/><path d="M206.282,129.278h23.83l2.805-54.4H203.476Z" transform="translate(9156.251 -9155.087)" fill="#ffce79" fill-rule="evenodd"/><rect width="29.441" height="6.095" transform="translate(9359.727 -9086.3)" fill="#d1a207"/><rect width="0.584" height="4.564" transform="translate(9360.761 -9085.535)" fill="#fec60d"/><rect width="0.584" height="4.564" transform="translate(9362.336 -9085.535)" fill="#fec60d"/><rect width="0.584" height="4.564" transform="translate(9363.911 -9085.535)" fill="#fec60d"/><rect width="0.584" height="4.564" transform="translate(9365.486 -9085.535)" fill="#fec60d"/><rect width="0.584" height="4.564" transform="translate(9367.064 -9085.535)" fill="#fec60d"/><rect width="0.584" height="4.564" transform="translate(9368.64 -9085.535)" fill="#fec60d"/><rect width="0.584" height="4.564" transform="translate(9370.215 -9085.535)" fill="#fec60d"/><rect width="0.584" height="4.564" transform="translate(9371.791 -9085.535)" fill="#fec60d"/><rect width="0.584" height="4.564" transform="translate(9373.368 -9085.535)" fill="#fec60d"/><rect width="0.584" height="4.564" transform="translate(9374.943 -9085.535)" fill="#fec60d"/><rect width="0.584" height="4.564" transform="translate(9376.52 -9085.535)" fill="#fec60d"/><rect width="0.584" height="4.564" transform="translate(9378.095 -9085.535)" fill="#fec60d"/><rect width="0.584" height="4.564" transform="translate(9379.672 -9085.535)" fill="#fec60d"/><rect width="0.584" height="4.564" transform="translate(9381.248 -9085.535)" fill="#fec60d"/><rect width="0.584" height="4.564" transform="translate(9382.823 -9085.535)" fill="#fec60d"/><rect width="0.584" height="4.564" transform="translate(9384.398 -9085.535)" fill="#fec60d"/><rect width="0.584" height="4.564" transform="translate(9385.975 -9085.535)" fill="#fec60d"/><rect width="0.584" height="4.564" transform="translate(9387.552 -9085.535)" fill="#fec60d"/><rect width="22.283" height="3.842" transform="translate(9363.306 -9072.054)" fill="#333c4d"/></g><g transform="translate(-300.168 357.417)"><path d="M240.48,85.7h27.23a4.946,4.946,0,0,0,4.931-4.931V30.493a4.946,4.946,0,0,0-4.931-4.931H240.48a4.946,4.946,0,0,0-4.931,4.931V80.765A4.946,4.946,0,0,0,240.48,85.7" transform="translate(9195.647 -9454.884)" fill="#5d9037" fill-rule="evenodd"/><path d="M238.614,22.811h30.963a3.072,3.072,0,0,1,3.064,3.064v0a3.072,3.072,0,0,1-3.064,3.064H238.614a3.074,3.074,0,0,1-3.064-3.064v0a3.074,3.074,0,0,1,3.064-3.064" transform="translate(9195.648 -9458.263)" fill="#fff" fill-rule="evenodd"/><rect width="29.494" height="13.154" transform="translate(9434.995 -9415.178)" fill="#fec60d"/><rect width="29.494" height="3.757" transform="translate(9434.995 -9415.176)" fill="#fff"/><path d="M222.088,85.7h27.23a4.946,4.946,0,0,0,4.931-4.931V30.493a4.946,4.946,0,0,0-4.931-4.931h-27.23a4.946,4.946,0,0,0-4.931,4.931V80.765a4.946,4.946,0,0,0,4.931,4.931" transform="translate(9173.056 -9454.884)" fill="#5d9037" fill-rule="evenodd"/><path d="M220.221,22.811h30.963a3.074,3.074,0,0,1,3.066,3.064v0a3.074,3.074,0,0,1-3.066,3.064H220.221a3.074,3.074,0,0,1-3.064-3.064v0a3.074,3.074,0,0,1,3.064-3.064" transform="translate(9173.056 -9458.263)" fill="#fff" fill-rule="evenodd"/><rect width="29.494" height="13.154" transform="translate(9394.012 -9415.178)" fill="#fec60d"/><rect width="29.494" height="3.757" transform="translate(9394.012 -9415.176)" fill="#fff"/><path d="M203.7,85.7h27.23a4.946,4.946,0,0,0,4.931-4.931V30.493a4.946,4.946,0,0,0-4.931-4.931H203.7a4.946,4.946,0,0,0-4.931,4.931V80.765A4.946,4.946,0,0,0,203.7,85.7" transform="translate(9150.463 -9454.884)" fill="#5d9037" fill-rule="evenodd"/><path d="M201.829,22.811h30.963a3.072,3.072,0,0,1,3.064,3.064v0a3.072,3.072,0,0,1-3.064,3.064H201.829a3.074,3.074,0,0,1-3.064-3.064v0a3.074,3.074,0,0,1,3.064-3.064" transform="translate(9150.464 -9458.263)" fill="#fff" fill-rule="evenodd"/><rect width="29.494" height="13.154" transform="translate(9353.025 -9415.178)" fill="#fec60d"/><rect width="29.494" height="3.757" transform="translate(9353.025 -9415.176)" fill="#fff"/></g></g></svg>